M48
;Layer_Color=9474304
;FILE_FORMAT=4:4
METRIC,LZ
;TYPE=PLATED
T01F00S00C0.3000
T02F00S00C0.7000
T03F00S00C0.8000
T04F00S00C0.9000
T05F00S00C1.0000
T06F00S00C1.8000
T07F00S00C2.7000
T08F00S00C3.6000
%
T01
X0061214Y0118237
X0092329Y0098552
X0095758
T02
X0053214Y0123698
X0055214
X0057214
X0059214
X0061214
T03
X0080772Y01016
X0120272
Y01191
X0080772
T04
X0056388Y0094869
X0058888
X0061388
X0063888
X0066388
X0068888
T05
X0053721Y0101981
X0056261
X0058801
X0061341
X0063881
X0066421
X0068961
X0071501
Y0114681
X0068961
X0066421
X0063881
X0061341
X0058801
X0056261
X0053721
T06
X0030703Y0101664
Y0115164
X0133858
Y0101664
T07
X0036703Y0104814
Y0112014
X0127858
Y0104814
T08
X0033Y0096
X008
X0131
Y0121
X0033
M30
