G04*
G04 #@! TF.GenerationSoftware,Altium Limited,Altium Designer,25.8.1 (18)*
G04*
G04 Layer_Color=8388736*
%FSLAX44Y44*%
%MOMM*%
G71*
G04*
G04 #@! TF.SameCoordinates,F8F0A343-2924-4F85-9C9D-BDB02173843C*
G04*
G04*
G04 #@! TF.FilePolarity,Negative*
G04*
G01*
G75*
%ADD17R,1.0000X1.2500*%
%ADD19R,1.8032X3.4032*%
%ADD20R,1.6532X1.4032*%
%ADD21C,2.2032*%
%ADD22O,1.5240X1.6000*%
%ADD23C,4.2532*%
%ADD24R,1.5240X1.6000*%
%ADD25R,4.2532X4.2532*%
%ADD26C,2.9032*%
%ADD27R,1.6032X1.6032*%
%ADD28C,1.6032*%
%ADD29C,1.2000*%
%ADD30R,1.2000X1.2000*%
%ADD31C,1.7272*%
%ADD32C,0.9032*%
D17*
X711040Y1057910D02*
D03*
X691040D02*
D03*
D19*
X454660Y1093070D02*
D03*
Y1043070D02*
D03*
D20*
X923290Y943770D02*
D03*
X957580D02*
D03*
X681990Y1235550D02*
D03*
X718820D02*
D03*
X755650D02*
D03*
X718820Y1215550D02*
D03*
X755650D02*
D03*
X923290Y963770D02*
D03*
X681990Y1215550D02*
D03*
X957580Y963770D02*
D03*
D21*
X807720Y1191000D02*
D03*
X1202720D02*
D03*
Y1016000D02*
D03*
X807720D02*
D03*
D22*
X715010Y1019810D02*
D03*
X689610D02*
D03*
X562610Y1146810D02*
D03*
X537210D02*
D03*
X588010D02*
D03*
X613410D02*
D03*
X638810D02*
D03*
X664210D02*
D03*
X689610D02*
D03*
X715010D02*
D03*
X664210Y1019810D02*
D03*
X638810D02*
D03*
X613410D02*
D03*
X588010D02*
D03*
X562610D02*
D03*
D23*
X367030Y1120140D02*
D03*
X1278580Y1048140D02*
D03*
D24*
X537210Y1019810D02*
D03*
D25*
X1278580Y1120140D02*
D03*
X367030Y1048140D02*
D03*
D26*
X307030Y1151640D02*
D03*
Y1016640D02*
D03*
X1338580D02*
D03*
Y1151640D02*
D03*
D27*
X688880Y948690D02*
D03*
D28*
X638880D02*
D03*
X563880D02*
D03*
X613880D02*
D03*
X663880D02*
D03*
X588880D02*
D03*
D29*
X612140Y1236980D02*
D03*
X592140D02*
D03*
X572140D02*
D03*
X552140D02*
D03*
D30*
X532140D02*
D03*
D31*
X800000Y960000D02*
D03*
X1310000Y1210000D02*
D03*
Y960000D02*
D03*
X330000D02*
D03*
Y1210000D02*
D03*
D32*
X923290Y985520D02*
D03*
X612140Y1182370D02*
D03*
X957580Y985520D02*
D03*
M02*
