G04*
G04 #@! TF.GenerationSoftware,Altium Limited,Altium Designer,25.8.1 (18)*
G04*
G04 Layer_Color=65535*
%FSLAX44Y44*%
%MOMM*%
G71*
G04*
G04 #@! TF.SameCoordinates,F8F0A343-2924-4F85-9C9D-BDB02173843C*
G04*
G04*
G04 #@! TF.FilePolarity,Positive*
G04*
G01*
G75*
%ADD10C,0.2500*%
%ADD11C,0.1000*%
%ADD12C,0.0500*%
%ADD13C,0.2540*%
%ADD14C,0.2000*%
%ADD15C,0.1500*%
D10*
X507890Y1236980D02*
G03*
X507890Y1236980I-1250J0D01*
G01*
D11*
X718880Y948690D02*
G03*
X717880Y948690I-500J0D01*
G01*
D02*
G03*
X718880Y948690I500J0D01*
G01*
D12*
X454660Y1116820D02*
G03*
X454660Y1116320I0J-250D01*
G01*
D02*
G03*
X454660Y1116820I0J250D01*
G01*
D13*
X792720Y1206000D02*
X1217720D01*
X792720Y1001000D02*
Y1206000D01*
X792720Y1001000D02*
X1217720D01*
X1217720Y1001000D02*
Y1206000D01*
X511810Y994410D02*
Y1172210D01*
Y994410D02*
X740410D01*
Y1172210D01*
X511810D02*
X740410D01*
X824230Y1191255D02*
X829308D01*
X826769D01*
Y1176020D01*
X824230D01*
X829308D01*
X836926D02*
Y1191255D01*
X847083Y1176020D01*
Y1191255D01*
X852161Y1183637D02*
X862318D01*
X857239Y1188716D02*
Y1178559D01*
X822960Y1033775D02*
X828038D01*
X825499D01*
Y1018540D01*
X822960D01*
X828038D01*
X835656D02*
Y1033775D01*
X845813Y1018540D01*
Y1033775D01*
X850891Y1026158D02*
X861048D01*
X1140458Y1033775D02*
X1135379D01*
X1132840Y1031236D01*
Y1021079D01*
X1135379Y1018540D01*
X1140458D01*
X1142997Y1021079D01*
Y1031236D01*
X1140458Y1033775D01*
X1148075D02*
Y1021079D01*
X1150614Y1018540D01*
X1155693D01*
X1158232Y1021079D01*
Y1033775D01*
X1163310D02*
X1173467D01*
X1168389D01*
Y1018540D01*
X1178545Y1026158D02*
X1188702D01*
X1140458Y1191255D02*
X1135379D01*
X1132840Y1188716D01*
Y1178559D01*
X1135379Y1176020D01*
X1140458D01*
X1142997Y1178559D01*
Y1188716D01*
X1140458Y1191255D01*
X1148075D02*
Y1178559D01*
X1150614Y1176020D01*
X1155693D01*
X1158232Y1178559D01*
Y1191255D01*
X1163310D02*
X1173467D01*
X1168389D01*
Y1176020D01*
X1178545Y1183637D02*
X1188702D01*
X1183624Y1188716D02*
Y1178559D01*
X422910Y1018540D02*
X433067D01*
X764535Y1065530D02*
X754378D01*
X749300Y1060452D01*
X754378Y1055373D01*
X764535D01*
X749300Y1050295D02*
X764535D01*
X759457Y1045217D01*
X764535Y1040138D01*
X749300D01*
X764535Y1027442D02*
Y1032521D01*
X761996Y1035060D01*
X751839D01*
X749300Y1032521D01*
Y1027442D01*
X751839Y1024903D01*
X761996D01*
X764535Y1027442D01*
Y1019825D02*
Y1009668D01*
Y1014746D01*
X749300D01*
X454660Y1238250D02*
Y1253485D01*
X459738Y1248407D01*
X464817Y1253485D01*
Y1238250D01*
X480052Y1250946D02*
X477513Y1253485D01*
X472434D01*
X469895Y1250946D01*
Y1240789D01*
X472434Y1238250D01*
X477513D01*
X480052Y1240789D01*
X485130Y1253485D02*
Y1240789D01*
X487669Y1238250D01*
X492748D01*
X495287Y1240789D01*
Y1253485D01*
X430527Y929636D02*
X427988Y932175D01*
X422909D01*
X420370Y929636D01*
Y927097D01*
X422909Y924557D01*
X427988D01*
X430527Y922018D01*
Y919479D01*
X427988Y916940D01*
X422909D01*
X420370Y919479D01*
X435605Y932175D02*
X445762D01*
X440683D01*
Y916940D01*
X460997Y932175D02*
X450840D01*
Y916940D01*
X460997D01*
X450840Y924557D02*
X455919D01*
X466075Y916940D02*
Y932175D01*
X473693D01*
X476232Y929636D01*
Y924557D01*
X473693Y922018D01*
X466075D01*
X481310Y916940D02*
Y932175D01*
X488928D01*
X491467Y929636D01*
Y924557D01*
X488928Y922018D01*
X481310D01*
X506702Y932175D02*
X496545D01*
Y916940D01*
X506702D01*
X496545Y924557D02*
X501624D01*
X511780Y916940D02*
Y932175D01*
X519398D01*
X521937Y929636D01*
Y924557D01*
X519398Y922018D01*
X511780D01*
X516859D02*
X521937Y916940D01*
X1228090Y999488D02*
X1238247D01*
X1233168Y1004566D02*
Y994409D01*
X1243325Y1004566D02*
X1245864Y1007105D01*
X1250943D01*
X1253482Y1004566D01*
Y1002027D01*
X1250943Y999488D01*
X1248403D01*
X1250943D01*
X1253482Y996948D01*
Y994409D01*
X1250943Y991870D01*
X1245864D01*
X1243325Y994409D01*
X1258560Y1007105D02*
Y996948D01*
X1263639Y991870D01*
X1268717Y996948D01*
Y1007105D01*
X1273795Y1004566D02*
X1276334Y1007105D01*
X1281413D01*
X1283952Y1004566D01*
Y1002027D01*
X1281413Y999488D01*
X1278874D01*
X1281413D01*
X1283952Y996948D01*
Y994409D01*
X1281413Y991870D01*
X1276334D01*
X1273795Y994409D01*
X401320Y1129027D02*
X411477D01*
X406398Y1134106D02*
Y1123949D01*
X416555Y1121410D02*
X421633D01*
X419094D01*
Y1136645D01*
X416555Y1134106D01*
X439408Y1121410D02*
X429251D01*
X439408Y1131567D01*
Y1134106D01*
X436869Y1136645D01*
X431790D01*
X429251Y1134106D01*
X444486Y1136645D02*
Y1126488D01*
X449564Y1121410D01*
X454643Y1126488D01*
Y1136645D01*
D14*
X352030Y1009140D02*
X377030Y1020140D01*
X352030Y1006640D02*
Y1009140D01*
X327030Y1006640D02*
X352030D01*
Y1159140D02*
X385530Y1144140D01*
X352030Y1159140D02*
Y1161640D01*
X327030D02*
X352030D01*
X290530Y1024140D02*
Y1144140D01*
X1268580Y1148140D02*
X1293580Y1159140D01*
Y1161640D01*
X1318580D01*
X1260080Y1024140D02*
X1293580Y1009140D01*
Y1006640D02*
Y1009140D01*
Y1006640D02*
X1318580D01*
X1355080Y1024140D02*
Y1144140D01*
X951330Y952770D02*
Y954770D01*
X963830Y952770D02*
Y954770D01*
X917040Y952770D02*
Y954770D01*
X929540Y952770D02*
Y954770D01*
X512640Y1208980D02*
Y1253980D01*
Y1208980D02*
X631640D01*
Y1253980D01*
X512640D02*
X631640D01*
X539380Y914690D02*
X713380D01*
X539380D02*
Y972190D01*
X713380D01*
Y914690D02*
Y972190D01*
X761900Y1224550D02*
Y1226550D01*
X749400Y1224550D02*
Y1226550D01*
X725070Y1224550D02*
Y1226550D01*
X712570Y1224550D02*
Y1226550D01*
X675740Y1224550D02*
Y1226550D01*
X688240Y1224550D02*
Y1226550D01*
X469660Y1101070D02*
X487660Y1083070D01*
Y1035070D02*
Y1083070D01*
X469660Y1035070D02*
X487660D01*
X421660D02*
X439660D01*
X421660D02*
Y1083070D01*
X439660Y1101070D01*
X689990Y1067910D02*
X712090D01*
X689990Y1047910D02*
X712090D01*
D15*
X1268334Y1179748D02*
X1265002D01*
X1266668D01*
Y1171418D01*
X1265002Y1169752D01*
X1263335D01*
X1261669Y1171418D01*
X1278331Y1169752D02*
X1271666D01*
X1278331Y1176416D01*
Y1178082D01*
X1276665Y1179748D01*
X1273332D01*
X1271666Y1178082D01*
X374650Y996868D02*
X371318D01*
X372984D01*
Y988538D01*
X371318Y986872D01*
X369652D01*
X367985Y988538D01*
X377982Y986872D02*
X381315D01*
X379648D01*
Y996868D01*
X377982Y995202D01*
X747319Y1192612D02*
Y1202608D01*
X752318D01*
X753984Y1200942D01*
Y1197610D01*
X752318Y1195944D01*
X747319D01*
X750652D02*
X753984Y1192612D01*
X763981Y1202608D02*
X757316D01*
Y1197610D01*
X760648Y1199276D01*
X762315D01*
X763981Y1197610D01*
Y1194278D01*
X762315Y1192612D01*
X758982D01*
X757316Y1194278D01*
X710489Y1192612D02*
Y1202608D01*
X715488D01*
X717154Y1200942D01*
Y1197610D01*
X715488Y1195944D01*
X710489D01*
X713822D02*
X717154Y1192612D01*
X725484D02*
Y1202608D01*
X720486Y1197610D01*
X727151D01*
X673659Y1192612D02*
Y1202608D01*
X678658D01*
X680324Y1200942D01*
Y1197610D01*
X678658Y1195944D01*
X673659D01*
X676992D02*
X680324Y1192612D01*
X683656Y1200942D02*
X685322Y1202608D01*
X688654D01*
X690321Y1200942D01*
Y1199276D01*
X688654Y1197610D01*
X686988D01*
X688654D01*
X690321Y1195944D01*
Y1194278D01*
X688654Y1192612D01*
X685322D01*
X683656Y1194278D01*
X695564Y1081562D02*
X693898Y1083228D01*
X690565D01*
X688899Y1081562D01*
Y1074898D01*
X690565Y1073232D01*
X693898D01*
X695564Y1074898D01*
X705561Y1073232D02*
X698896D01*
X705561Y1079896D01*
Y1081562D01*
X703895Y1083228D01*
X700562D01*
X698896Y1081562D01*
X481330Y1025682D02*
X479664Y1027348D01*
X476332D01*
X474665Y1025682D01*
Y1019018D01*
X476332Y1017352D01*
X479664D01*
X481330Y1019018D01*
X484662Y1017352D02*
X487994D01*
X486328D01*
Y1027348D01*
X484662Y1025682D01*
M02*
