G04*
G04 #@! TF.GenerationSoftware,Altium Limited,Altium Designer,25.8.1 (18)*
G04*
G04 Layer_Physical_Order=2*
G04 Layer_Color=16711680*
%FSLAX44Y44*%
%MOMM*%
G71*
G04*
G04 #@! TF.SameCoordinates,F8F0A343-2924-4F85-9C9D-BDB02173843C*
G04*
G04*
G04 #@! TF.FilePolarity,Positive*
G04*
G01*
G75*
%ADD22O,1.5240X1.6000*%
%ADD24R,1.5240X1.6000*%
%ADD29C,1.2000*%
%ADD30R,1.2000X1.2000*%
%ADD33C,0.7000*%
%ADD37C,2.0000*%
%ADD38C,4.0500*%
%ADD39R,4.0500X4.0500*%
%ADD40C,2.7000*%
%ADD41R,1.4000X1.4000*%
%ADD42C,1.4000*%
%ADD43C,1.5240*%
%ADD44C,0.7000*%
G36*
X1350000Y1230000D02*
Y1167606D01*
X1348880Y1167008D01*
X1347343Y1168035D01*
X1343976Y1169429D01*
X1340402Y1170140D01*
X1336758D01*
X1333184Y1169429D01*
X1329817Y1168035D01*
X1326787Y1166010D01*
X1324210Y1163433D01*
X1322186Y1160403D01*
X1320791Y1157036D01*
X1320080Y1153462D01*
Y1149818D01*
X1320791Y1146244D01*
X1322186Y1142877D01*
X1324210Y1139847D01*
X1326787Y1137270D01*
X1329817Y1135246D01*
X1333184Y1133851D01*
X1336758Y1133140D01*
X1340402D01*
X1343976Y1133851D01*
X1347343Y1135246D01*
X1348880Y1136273D01*
X1350000Y1135674D01*
Y1032606D01*
X1348880Y1032008D01*
X1347343Y1033035D01*
X1343976Y1034429D01*
X1340402Y1035140D01*
X1336758D01*
X1333184Y1034429D01*
X1329817Y1033035D01*
X1326787Y1031010D01*
X1324210Y1028433D01*
X1322186Y1025403D01*
X1320791Y1022036D01*
X1320080Y1018462D01*
Y1014818D01*
X1320791Y1011244D01*
X1322186Y1007877D01*
X1324210Y1004847D01*
X1326787Y1002270D01*
X1329817Y1000246D01*
X1333184Y998851D01*
X1336758Y998140D01*
X1340402D01*
X1343976Y998851D01*
X1347343Y1000246D01*
X1348880Y1001273D01*
X1350000Y1000674D01*
Y940000D01*
X1330000Y920000D01*
X310000D01*
X290000Y940000D01*
Y1006542D01*
X291270Y1006927D01*
X292660Y1004847D01*
X295237Y1002270D01*
X298267Y1000246D01*
X301634Y998851D01*
X305208Y998140D01*
X308852D01*
X312426Y998851D01*
X315793Y1000246D01*
X318823Y1002270D01*
X321400Y1004847D01*
X323424Y1007877D01*
X324819Y1011244D01*
X325530Y1014818D01*
Y1018462D01*
X324819Y1022036D01*
X323424Y1025403D01*
X321400Y1028433D01*
X318823Y1031010D01*
X315793Y1033035D01*
X312426Y1034429D01*
X308852Y1035140D01*
X305208D01*
X301634Y1034429D01*
X298267Y1033035D01*
X295237Y1031010D01*
X292660Y1028433D01*
X291270Y1026353D01*
X290000Y1026738D01*
Y1141542D01*
X291270Y1141927D01*
X292660Y1139847D01*
X295237Y1137270D01*
X298267Y1135246D01*
X301634Y1133851D01*
X305208Y1133140D01*
X308852D01*
X312426Y1133851D01*
X315793Y1135246D01*
X318823Y1137270D01*
X321400Y1139847D01*
X323424Y1142877D01*
X324819Y1146244D01*
X325530Y1149818D01*
Y1153462D01*
X324819Y1157036D01*
X323424Y1160403D01*
X321400Y1163433D01*
X318823Y1166010D01*
X315793Y1168035D01*
X312426Y1169429D01*
X308852Y1170140D01*
X305208D01*
X301634Y1169429D01*
X298267Y1168035D01*
X295237Y1166010D01*
X292660Y1163433D01*
X291270Y1161353D01*
X290000Y1161738D01*
Y1230000D01*
X310000Y1250000D01*
X1330000D01*
X1350000Y1230000D01*
D02*
G37*
%LPC*%
G36*
X613588Y1247980D02*
X610692D01*
X607894Y1247230D01*
X605386Y1245782D01*
X603338Y1243734D01*
X602775Y1242759D01*
X601505D01*
X600942Y1243734D01*
X598894Y1245782D01*
X596386Y1247230D01*
X593588Y1247980D01*
X590692D01*
X587894Y1247230D01*
X585386Y1245782D01*
X583338Y1243734D01*
X582775Y1242759D01*
X581505D01*
X580942Y1243734D01*
X578894Y1245782D01*
X576386Y1247230D01*
X573588Y1247980D01*
X570692D01*
X567894Y1247230D01*
X565386Y1245782D01*
X563338Y1243734D01*
X562775Y1242759D01*
X561505D01*
X560942Y1243734D01*
X558894Y1245782D01*
X556386Y1247230D01*
X553588Y1247980D01*
X550692D01*
X547894Y1247230D01*
X545386Y1245782D01*
X544410Y1244806D01*
X543140Y1245332D01*
Y1247980D01*
X521140D01*
Y1225980D01*
X543140D01*
X543877Y1225015D01*
Y1217930D01*
X544169Y1215711D01*
X545025Y1213643D01*
X546388Y1211868D01*
X560358Y1197898D01*
X562133Y1196535D01*
X564201Y1195679D01*
X566420Y1195387D01*
X606049D01*
X609609Y1191826D01*
X609610Y1191822D01*
X609453Y1190776D01*
X609245Y1190394D01*
X608859Y1190291D01*
X608372Y1190010D01*
X607853Y1189795D01*
X607408Y1189453D01*
X606921Y1189172D01*
X606524Y1188774D01*
X606078Y1188432D01*
X599699Y1182053D01*
X527050D01*
X524831Y1181761D01*
X522763Y1180905D01*
X520988Y1179542D01*
X508288Y1166842D01*
X506925Y1165067D01*
X506069Y1162999D01*
X505777Y1160780D01*
Y1097280D01*
X506069Y1095061D01*
X506925Y1092993D01*
X508288Y1091218D01*
X554037Y1045469D01*
Y1029519D01*
X553609Y1029191D01*
X551586Y1026554D01*
X550315Y1023484D01*
X549881Y1020190D01*
Y1019430D01*
X550315Y1016135D01*
X551586Y1013066D01*
X553609Y1010429D01*
X556246Y1008407D01*
X559315Y1007135D01*
X562610Y1006701D01*
X565905Y1007135D01*
X568974Y1008407D01*
X571611Y1010429D01*
X573633Y1013066D01*
X574623Y1015454D01*
X575997D01*
X576987Y1013066D01*
X579009Y1010429D01*
X581646Y1008407D01*
X584715Y1007135D01*
X588010Y1006701D01*
X591305Y1007135D01*
X594374Y1008407D01*
X597011Y1010429D01*
X599034Y1013066D01*
X600023Y1015454D01*
X601397D01*
X602387Y1013066D01*
X604409Y1010429D01*
X607046Y1008407D01*
X610116Y1007135D01*
X613410Y1006701D01*
X616704Y1007135D01*
X619774Y1008407D01*
X622411Y1010429D01*
X624434Y1013066D01*
X625423Y1015454D01*
X626797D01*
X627786Y1013066D01*
X629809Y1010429D01*
X632446Y1008407D01*
X635516Y1007135D01*
X638810Y1006701D01*
X642104Y1007135D01*
X645174Y1008407D01*
X647811Y1010429D01*
X649834Y1013066D01*
X650823Y1015454D01*
X652197D01*
X653186Y1013066D01*
X655209Y1010429D01*
X657846Y1008407D01*
X660916Y1007135D01*
X664210Y1006701D01*
X667505Y1007135D01*
X670574Y1008407D01*
X673211Y1010429D01*
X675234Y1013066D01*
X676505Y1016135D01*
X676939Y1019430D01*
Y1020190D01*
X676505Y1023484D01*
X675234Y1026554D01*
X673211Y1029191D01*
X670574Y1031214D01*
X667505Y1032485D01*
X664210Y1032919D01*
X660916Y1032485D01*
X657846Y1031214D01*
X655209Y1029191D01*
X653186Y1026554D01*
X652197Y1024166D01*
X650823D01*
X649834Y1026554D01*
X647811Y1029191D01*
X645174Y1031214D01*
X642104Y1032485D01*
X638810Y1032919D01*
X635516Y1032485D01*
X632446Y1031214D01*
X629809Y1029191D01*
X627786Y1026554D01*
X626797Y1024166D01*
X625423D01*
X624434Y1026554D01*
X622411Y1029191D01*
X619774Y1031214D01*
X616704Y1032485D01*
X613410Y1032919D01*
X610116Y1032485D01*
X607046Y1031214D01*
X604409Y1029191D01*
X602387Y1026554D01*
X601397Y1024166D01*
X600023D01*
X599034Y1026554D01*
X597011Y1029191D01*
X594374Y1031214D01*
X591305Y1032485D01*
X588010Y1032919D01*
X584715Y1032485D01*
X581646Y1031214D01*
X579009Y1029191D01*
X576987Y1026554D01*
X575997Y1024166D01*
X574623D01*
X573633Y1026554D01*
X571611Y1029191D01*
X571183Y1029519D01*
Y1049020D01*
X570891Y1051239D01*
X570035Y1053307D01*
X568672Y1055082D01*
X522923Y1100831D01*
Y1157229D01*
X530601Y1164907D01*
X603250D01*
X605469Y1165199D01*
X607537Y1166055D01*
X609312Y1167418D01*
X618202Y1176308D01*
X618544Y1176754D01*
X618942Y1177151D01*
X619223Y1177638D01*
X619565Y1178083D01*
X619780Y1178602D01*
X620061Y1179089D01*
X620164Y1179475D01*
X620643Y1179742D01*
X621557Y1179899D01*
X621622Y1179884D01*
X623093Y1178755D01*
X625161Y1177899D01*
X627380Y1177607D01*
X693679D01*
X706437Y1164849D01*
Y1156518D01*
X706009Y1156191D01*
X703987Y1153554D01*
X702997Y1151166D01*
X701623D01*
X700633Y1153554D01*
X698611Y1156191D01*
X695974Y1158214D01*
X692905Y1159485D01*
X689610Y1159919D01*
X686316Y1159485D01*
X683246Y1158214D01*
X680609Y1156191D01*
X678587Y1153554D01*
X677597Y1151166D01*
X676223D01*
X675234Y1153554D01*
X673211Y1156191D01*
X670574Y1158214D01*
X667505Y1159485D01*
X664210Y1159919D01*
X660916Y1159485D01*
X657846Y1158214D01*
X655209Y1156191D01*
X653186Y1153554D01*
X652197Y1151166D01*
X650823D01*
X649834Y1153554D01*
X647811Y1156191D01*
X645174Y1158214D01*
X642104Y1159485D01*
X638810Y1159919D01*
X635516Y1159485D01*
X632446Y1158214D01*
X629809Y1156191D01*
X627786Y1153554D01*
X626797Y1151166D01*
X625423D01*
X624434Y1153554D01*
X622411Y1156191D01*
X619774Y1158214D01*
X616704Y1159485D01*
X613410Y1159919D01*
X610116Y1159485D01*
X607046Y1158214D01*
X604409Y1156191D01*
X602387Y1153554D01*
X601397Y1151166D01*
X600023D01*
X599034Y1153554D01*
X597011Y1156191D01*
X594374Y1158214D01*
X591305Y1159485D01*
X588010Y1159919D01*
X584715Y1159485D01*
X581646Y1158214D01*
X579009Y1156191D01*
X576987Y1153554D01*
X575997Y1151166D01*
X574623D01*
X573633Y1153554D01*
X571611Y1156191D01*
X568974Y1158214D01*
X565905Y1159485D01*
X562610Y1159919D01*
X559315Y1159485D01*
X556246Y1158214D01*
X553609Y1156191D01*
X551586Y1153554D01*
X550597Y1151166D01*
X549223D01*
X548233Y1153554D01*
X546211Y1156191D01*
X543574Y1158214D01*
X540504Y1159485D01*
X537210Y1159919D01*
X533915Y1159485D01*
X530846Y1158214D01*
X528209Y1156191D01*
X526186Y1153554D01*
X524915Y1150484D01*
X524481Y1147190D01*
Y1146430D01*
X524915Y1143136D01*
X526186Y1140066D01*
X528209Y1137429D01*
X530846Y1135406D01*
X533915Y1134135D01*
X537210Y1133701D01*
X540504Y1134135D01*
X543574Y1135406D01*
X546211Y1137429D01*
X548233Y1140066D01*
X549223Y1142454D01*
X550597D01*
X551586Y1140066D01*
X553609Y1137429D01*
X556246Y1135406D01*
X559315Y1134135D01*
X562610Y1133701D01*
X565905Y1134135D01*
X568974Y1135406D01*
X571611Y1137429D01*
X573633Y1140066D01*
X574623Y1142454D01*
X575997D01*
X576987Y1140066D01*
X579009Y1137429D01*
X581646Y1135406D01*
X584715Y1134135D01*
X588010Y1133701D01*
X591305Y1134135D01*
X594374Y1135406D01*
X597011Y1137429D01*
X599034Y1140066D01*
X600023Y1142454D01*
X601397D01*
X602387Y1140066D01*
X604409Y1137429D01*
X604837Y1137102D01*
Y1088390D01*
X605129Y1086171D01*
X605985Y1084103D01*
X607348Y1082328D01*
X630208Y1059468D01*
X631983Y1058105D01*
X634051Y1057249D01*
X636270Y1056957D01*
X862589D01*
X914717Y1004829D01*
Y985520D01*
X914790Y984963D01*
Y984401D01*
X914935Y983858D01*
X915009Y983301D01*
X915224Y982782D01*
X915369Y982239D01*
X915650Y981752D01*
X915865Y981233D01*
X916207Y980788D01*
X916488Y980301D01*
X916886Y979904D01*
X917228Y979458D01*
X917674Y979116D01*
X918071Y978718D01*
X918558Y978437D01*
X919003Y978095D01*
X919522Y977880D01*
X920009Y977599D01*
X920552Y977454D01*
X921071Y977239D01*
X921628Y977165D01*
X922171Y977020D01*
X922733D01*
X923290Y976947D01*
X923847Y977020D01*
X924409D01*
X924952Y977165D01*
X925509Y977239D01*
X926028Y977454D01*
X926571Y977599D01*
X927058Y977880D01*
X927577Y978095D01*
X928022Y978437D01*
X928509Y978718D01*
X928906Y979116D01*
X929352Y979458D01*
X929694Y979904D01*
X930092Y980301D01*
X930373Y980788D01*
X930715Y981233D01*
X930930Y981752D01*
X931211Y982239D01*
X931356Y982782D01*
X931571Y983301D01*
X931645Y983858D01*
X931790Y984401D01*
Y984963D01*
X931863Y985520D01*
Y1008380D01*
X931863Y1008380D01*
X931571Y1010599D01*
X930715Y1012667D01*
X929352Y1014442D01*
X872202Y1071592D01*
X870427Y1072955D01*
X868359Y1073811D01*
X866140Y1074103D01*
X639821D01*
X621983Y1091941D01*
Y1137102D01*
X622411Y1137429D01*
X624434Y1140066D01*
X625423Y1142454D01*
X626797D01*
X627786Y1140066D01*
X629809Y1137429D01*
X632446Y1135406D01*
X635516Y1134135D01*
X638810Y1133701D01*
X642104Y1134135D01*
X645174Y1135406D01*
X647811Y1137429D01*
X649834Y1140066D01*
X650823Y1142454D01*
X652197D01*
X653186Y1140066D01*
X655209Y1137429D01*
X657846Y1135406D01*
X660916Y1134135D01*
X664210Y1133701D01*
X667505Y1134135D01*
X670574Y1135406D01*
X673211Y1137429D01*
X675234Y1140066D01*
X676223Y1142454D01*
X677597D01*
X678587Y1140066D01*
X680609Y1137429D01*
X683246Y1135406D01*
X686316Y1134135D01*
X689610Y1133701D01*
X692905Y1134135D01*
X695974Y1135406D01*
X698611Y1137429D01*
X700633Y1140066D01*
X701623Y1142454D01*
X702997D01*
X703987Y1140066D01*
X706009Y1137429D01*
X706437Y1137102D01*
Y1113790D01*
X706729Y1111571D01*
X707585Y1109503D01*
X708948Y1107728D01*
X720378Y1096298D01*
X722153Y1094935D01*
X724221Y1094079D01*
X726440Y1093787D01*
X881639D01*
X949007Y1026419D01*
Y985520D01*
X949080Y984963D01*
Y984401D01*
X949225Y983858D01*
X949299Y983301D01*
X949514Y982782D01*
X949659Y982239D01*
X949940Y981752D01*
X950155Y981233D01*
X950497Y980788D01*
X950778Y980301D01*
X951176Y979904D01*
X951518Y979458D01*
X951964Y979116D01*
X952361Y978718D01*
X952848Y978437D01*
X953293Y978095D01*
X953812Y977880D01*
X954299Y977599D01*
X954842Y977454D01*
X955361Y977239D01*
X955918Y977165D01*
X956461Y977020D01*
X957023D01*
X957580Y976947D01*
X958137Y977020D01*
X958699D01*
X959242Y977165D01*
X959799Y977239D01*
X960318Y977454D01*
X960861Y977599D01*
X961348Y977880D01*
X961867Y978095D01*
X962312Y978437D01*
X962799Y978718D01*
X963196Y979116D01*
X963642Y979458D01*
X963984Y979904D01*
X964382Y980301D01*
X964663Y980788D01*
X965005Y981233D01*
X965220Y981752D01*
X965501Y982239D01*
X965646Y982782D01*
X965861Y983301D01*
X965935Y983858D01*
X966080Y984401D01*
Y984963D01*
X966153Y985520D01*
Y1029970D01*
X965861Y1032189D01*
X965005Y1034257D01*
X963642Y1036032D01*
X891252Y1108422D01*
X889477Y1109785D01*
X887409Y1110641D01*
X885190Y1110933D01*
X729991D01*
X723583Y1117341D01*
Y1137102D01*
X724011Y1137429D01*
X726033Y1140066D01*
X727305Y1143136D01*
X727739Y1146430D01*
Y1147190D01*
X727305Y1150484D01*
X726033Y1153554D01*
X724011Y1156191D01*
X723583Y1156518D01*
Y1168400D01*
X723291Y1170619D01*
X722435Y1172687D01*
X721072Y1174462D01*
X703292Y1192242D01*
X701517Y1193605D01*
X699449Y1194461D01*
X697230Y1194753D01*
X630931D01*
X615662Y1210022D01*
X613887Y1211385D01*
X611819Y1212241D01*
X609600Y1212533D01*
X569971D01*
X561023Y1221481D01*
Y1230367D01*
X561505Y1231201D01*
X562775D01*
X563338Y1230226D01*
X565386Y1228178D01*
X567894Y1226730D01*
X570692Y1225980D01*
X573588D01*
X576386Y1226730D01*
X578894Y1228178D01*
X580942Y1230226D01*
X581505Y1231201D01*
X582775D01*
X583338Y1230226D01*
X585386Y1228178D01*
X587894Y1226730D01*
X590692Y1225980D01*
X593588D01*
X596386Y1226730D01*
X598894Y1228178D01*
X600942Y1230226D01*
X601505Y1231201D01*
X602775D01*
X603338Y1230226D01*
X605386Y1228178D01*
X607894Y1226730D01*
X610692Y1225980D01*
X613588D01*
X616386Y1226730D01*
X618894Y1228178D01*
X620942Y1230226D01*
X622390Y1232734D01*
X623140Y1235532D01*
Y1238428D01*
X622390Y1241226D01*
X620942Y1243734D01*
X618894Y1245782D01*
X616386Y1247230D01*
X613588Y1247980D01*
D02*
G37*
G36*
X1312265Y1233000D02*
X1307735D01*
X1303291Y1232116D01*
X1299105Y1230382D01*
X1295338Y1227865D01*
X1292135Y1224662D01*
X1289618Y1220895D01*
X1287884Y1216709D01*
X1287000Y1212265D01*
Y1207735D01*
X1287884Y1203291D01*
X1289618Y1199105D01*
X1292135Y1195338D01*
X1295338Y1192135D01*
X1299105Y1189618D01*
X1303291Y1187884D01*
X1307735Y1187000D01*
X1312265D01*
X1316709Y1187884D01*
X1320895Y1189618D01*
X1324662Y1192135D01*
X1327865Y1195338D01*
X1330382Y1199105D01*
X1332116Y1203291D01*
X1333000Y1207735D01*
Y1212265D01*
X1332116Y1216709D01*
X1330382Y1220895D01*
X1327865Y1224662D01*
X1324662Y1227865D01*
X1320895Y1230382D01*
X1316709Y1232116D01*
X1312265Y1233000D01*
D02*
G37*
G36*
X332265D02*
X327735D01*
X323291Y1232116D01*
X319105Y1230382D01*
X315338Y1227865D01*
X312135Y1224662D01*
X309618Y1220895D01*
X307884Y1216709D01*
X307000Y1212265D01*
Y1207735D01*
X307884Y1203291D01*
X309618Y1199105D01*
X312135Y1195338D01*
X315338Y1192135D01*
X319105Y1189618D01*
X323291Y1187884D01*
X327735Y1187000D01*
X332265D01*
X336709Y1187884D01*
X340895Y1189618D01*
X344662Y1192135D01*
X347865Y1195338D01*
X350382Y1199105D01*
X352116Y1203291D01*
X353000Y1207735D01*
Y1212265D01*
X352116Y1216709D01*
X350382Y1220895D01*
X347865Y1224662D01*
X344662Y1227865D01*
X340895Y1230382D01*
X336709Y1232116D01*
X332265Y1233000D01*
D02*
G37*
G36*
X1204197Y1206000D02*
X1201243D01*
X1198345Y1205424D01*
X1195615Y1204293D01*
X1193158Y1202651D01*
X1191069Y1200562D01*
X1189427Y1198105D01*
X1188297Y1195375D01*
X1187720Y1192477D01*
Y1189523D01*
X1188297Y1186625D01*
X1189427Y1183895D01*
X1191069Y1181438D01*
X1193158Y1179349D01*
X1195615Y1177707D01*
X1198345Y1176577D01*
X1201243Y1176000D01*
X1204197D01*
X1207095Y1176577D01*
X1209825Y1177707D01*
X1212282Y1179349D01*
X1214371Y1181438D01*
X1216013Y1183895D01*
X1217143Y1186625D01*
X1217720Y1189523D01*
Y1192477D01*
X1217143Y1195375D01*
X1216013Y1198105D01*
X1214371Y1200562D01*
X1212282Y1202651D01*
X1209825Y1204293D01*
X1207095Y1205424D01*
X1204197Y1206000D01*
D02*
G37*
G36*
X809197D02*
X806243D01*
X803345Y1205424D01*
X800615Y1204293D01*
X798158Y1202651D01*
X796069Y1200562D01*
X794427Y1198105D01*
X793297Y1195375D01*
X792720Y1192477D01*
Y1189523D01*
X793297Y1186625D01*
X794427Y1183895D01*
X796069Y1181438D01*
X798158Y1179349D01*
X800615Y1177707D01*
X803345Y1176577D01*
X806243Y1176000D01*
X809197D01*
X812095Y1176577D01*
X814825Y1177707D01*
X817282Y1179349D01*
X819371Y1181438D01*
X821013Y1183895D01*
X822143Y1186625D01*
X822720Y1189523D01*
Y1192477D01*
X822143Y1195375D01*
X821013Y1198105D01*
X819371Y1200562D01*
X817282Y1202651D01*
X814825Y1204293D01*
X812095Y1205424D01*
X809197Y1206000D01*
D02*
G37*
G36*
X1301370Y1142930D02*
X1283580D01*
Y1125140D01*
X1301370D01*
Y1142930D01*
D02*
G37*
G36*
X1273580D02*
X1255790D01*
Y1125140D01*
X1273580D01*
Y1142930D01*
D02*
G37*
G36*
X1301370Y1115140D02*
X1283580D01*
Y1097350D01*
X1301370D01*
Y1115140D01*
D02*
G37*
G36*
X1273580D02*
X1255790D01*
Y1097350D01*
X1273580D01*
Y1115140D01*
D02*
G37*
G36*
X369517Y1145390D02*
X364543D01*
X359665Y1144420D01*
X355070Y1142516D01*
X350934Y1139753D01*
X347417Y1136236D01*
X344654Y1132100D01*
X342750Y1127505D01*
X341780Y1122627D01*
Y1117653D01*
X342750Y1112775D01*
X344654Y1108180D01*
X347417Y1104044D01*
X350934Y1100527D01*
X355070Y1097764D01*
X359665Y1095860D01*
X364543Y1094890D01*
X369517D01*
X374395Y1095860D01*
X378990Y1097764D01*
X383126Y1100527D01*
X386643Y1104044D01*
X389406Y1108180D01*
X391310Y1112775D01*
X392280Y1117653D01*
Y1122627D01*
X391310Y1127505D01*
X389406Y1132100D01*
X386643Y1136236D01*
X383126Y1139753D01*
X378990Y1142516D01*
X374395Y1144420D01*
X369517Y1145390D01*
D02*
G37*
G36*
X389820Y1070930D02*
X372030D01*
Y1053140D01*
X389820D01*
Y1070930D01*
D02*
G37*
G36*
X362030D02*
X344240D01*
Y1053140D01*
X362030D01*
Y1070930D01*
D02*
G37*
G36*
X389820Y1043140D02*
X372030D01*
Y1025350D01*
X389820D01*
Y1043140D01*
D02*
G37*
G36*
X362030D02*
X344240D01*
Y1025350D01*
X362030D01*
Y1043140D01*
D02*
G37*
G36*
X694610Y1029116D02*
Y1024810D01*
X698693D01*
X698485Y1025314D01*
X696856Y1027436D01*
X694734Y1029065D01*
X694610Y1029116D01*
D02*
G37*
G36*
X547370Y1030350D02*
X542210D01*
Y1024810D01*
X547370D01*
Y1030350D01*
D02*
G37*
G36*
X684610Y1029116D02*
X684486Y1029065D01*
X682364Y1027436D01*
X680735Y1025314D01*
X680527Y1024810D01*
X684610D01*
Y1029116D01*
D02*
G37*
G36*
X532210Y1030350D02*
X527050D01*
Y1024810D01*
X532210D01*
Y1030350D01*
D02*
G37*
G36*
X1281067Y1073390D02*
X1276093D01*
X1271215Y1072420D01*
X1266620Y1070516D01*
X1262484Y1067753D01*
X1258967Y1064236D01*
X1256204Y1060100D01*
X1254300Y1055505D01*
X1253330Y1050627D01*
Y1045653D01*
X1254300Y1040775D01*
X1256204Y1036180D01*
X1258967Y1032044D01*
X1262484Y1028527D01*
X1266620Y1025764D01*
X1271215Y1023860D01*
X1276093Y1022890D01*
X1281067D01*
X1285945Y1023860D01*
X1290540Y1025764D01*
X1294676Y1028527D01*
X1298193Y1032044D01*
X1300956Y1036180D01*
X1302860Y1040775D01*
X1303830Y1045653D01*
Y1050627D01*
X1302860Y1055505D01*
X1300956Y1060100D01*
X1298193Y1064236D01*
X1294676Y1067753D01*
X1290540Y1070516D01*
X1285945Y1072420D01*
X1281067Y1073390D01*
D02*
G37*
G36*
X1207720Y1027593D02*
Y1021000D01*
X1214313D01*
X1212755Y1023700D01*
X1210420Y1026034D01*
X1207720Y1027593D01*
D02*
G37*
G36*
X1197720D02*
X1195020Y1026034D01*
X1192685Y1023700D01*
X1191127Y1021000D01*
X1197720D01*
Y1027593D01*
D02*
G37*
G36*
X812720D02*
Y1021000D01*
X819313D01*
X817755Y1023700D01*
X815420Y1026034D01*
X812720Y1027593D01*
D02*
G37*
G36*
X802720D02*
X800020Y1026034D01*
X797685Y1023700D01*
X796127Y1021000D01*
X802720D01*
Y1027593D01*
D02*
G37*
G36*
X698693Y1014810D02*
X694610D01*
Y1010504D01*
X694734Y1010555D01*
X696856Y1012184D01*
X698485Y1014306D01*
X698693Y1014810D01*
D02*
G37*
G36*
X684610D02*
X680527D01*
X680735Y1014306D01*
X682364Y1012184D01*
X684486Y1010555D01*
X684610Y1010504D01*
Y1014810D01*
D02*
G37*
G36*
X547370D02*
X542210D01*
Y1009270D01*
X547370D01*
Y1014810D01*
D02*
G37*
G36*
X532210D02*
X527050D01*
Y1009270D01*
X532210D01*
Y1014810D01*
D02*
G37*
G36*
X715010Y1032919D02*
X711715Y1032485D01*
X708646Y1031214D01*
X706009Y1029191D01*
X703987Y1026554D01*
X702715Y1023484D01*
X702281Y1020190D01*
Y1019430D01*
X702715Y1016135D01*
X703987Y1013066D01*
X706009Y1010429D01*
X708646Y1008407D01*
X711715Y1007135D01*
X715010Y1006701D01*
X718305Y1007135D01*
X721374Y1008407D01*
X724011Y1010429D01*
X726033Y1013066D01*
X727305Y1016135D01*
X727739Y1019430D01*
Y1020190D01*
X727305Y1023484D01*
X726033Y1026554D01*
X724011Y1029191D01*
X721374Y1031214D01*
X718305Y1032485D01*
X715010Y1032919D01*
D02*
G37*
G36*
X819313Y1011000D02*
X812720D01*
Y1004407D01*
X815420Y1005965D01*
X817755Y1008300D01*
X819313Y1011000D01*
D02*
G37*
G36*
X802720D02*
X796127D01*
X797685Y1008300D01*
X800020Y1005965D01*
X802720Y1004407D01*
Y1011000D01*
D02*
G37*
G36*
X1214313D02*
X1207720D01*
Y1004407D01*
X1210420Y1005965D01*
X1212755Y1008300D01*
X1214313Y1011000D01*
D02*
G37*
G36*
X1197720D02*
X1191127D01*
X1192685Y1008300D01*
X1195020Y1005965D01*
X1197720Y1004407D01*
Y1011000D01*
D02*
G37*
G36*
X700880Y960690D02*
X676880D01*
Y951444D01*
X675610Y951277D01*
X675062Y953322D01*
X673482Y956058D01*
X671248Y958292D01*
X668512Y959872D01*
X665460Y960690D01*
X662300D01*
X659248Y959872D01*
X656512Y958292D01*
X654278Y956058D01*
X652698Y953322D01*
X652037Y950857D01*
X650723D01*
X650062Y953322D01*
X648482Y956058D01*
X646248Y958292D01*
X643512Y959872D01*
X640460Y960690D01*
X637300D01*
X634248Y959872D01*
X631512Y958292D01*
X629278Y956058D01*
X627698Y953322D01*
X627037Y950857D01*
X625723D01*
X625062Y953322D01*
X623482Y956058D01*
X621248Y958292D01*
X618512Y959872D01*
X615460Y960690D01*
X612300D01*
X609248Y959872D01*
X606512Y958292D01*
X604278Y956058D01*
X602698Y953322D01*
X602037Y950857D01*
X600723D01*
X600062Y953322D01*
X598482Y956058D01*
X596248Y958292D01*
X593512Y959872D01*
X590460Y960690D01*
X587300D01*
X584248Y959872D01*
X581512Y958292D01*
X579278Y956058D01*
X577698Y953322D01*
X577037Y950857D01*
X575723D01*
X575062Y953322D01*
X573482Y956058D01*
X571248Y958292D01*
X568512Y959872D01*
X565460Y960690D01*
X562300D01*
X559248Y959872D01*
X556512Y958292D01*
X554278Y956058D01*
X552698Y953322D01*
X551880Y950270D01*
Y947110D01*
X552698Y944058D01*
X554278Y941322D01*
X556512Y939088D01*
X559248Y937508D01*
X562300Y936690D01*
X565460D01*
X568512Y937508D01*
X571248Y939088D01*
X573482Y941322D01*
X575062Y944058D01*
X575723Y946523D01*
X577037D01*
X577698Y944058D01*
X579278Y941322D01*
X581512Y939088D01*
X584248Y937508D01*
X587300Y936690D01*
X590460D01*
X593512Y937508D01*
X596248Y939088D01*
X598482Y941322D01*
X600062Y944058D01*
X600723Y946523D01*
X602037D01*
X602698Y944058D01*
X604278Y941322D01*
X606512Y939088D01*
X609248Y937508D01*
X612300Y936690D01*
X615460D01*
X618512Y937508D01*
X621248Y939088D01*
X623482Y941322D01*
X625062Y944058D01*
X625723Y946523D01*
X627037D01*
X627698Y944058D01*
X629278Y941322D01*
X631512Y939088D01*
X634248Y937508D01*
X637300Y936690D01*
X640460D01*
X643512Y937508D01*
X646248Y939088D01*
X648482Y941322D01*
X650062Y944058D01*
X650723Y946523D01*
X652037D01*
X652698Y944058D01*
X654278Y941322D01*
X656512Y939088D01*
X659248Y937508D01*
X662300Y936690D01*
X665460D01*
X668512Y937508D01*
X671248Y939088D01*
X673482Y941322D01*
X675062Y944058D01*
X675610Y946103D01*
X676880Y945936D01*
Y936690D01*
X700880D01*
Y960690D01*
D02*
G37*
G36*
X1312265Y983000D02*
X1307735D01*
X1303291Y982116D01*
X1299105Y980382D01*
X1295338Y977865D01*
X1292135Y974662D01*
X1289618Y970895D01*
X1287884Y966709D01*
X1287000Y962265D01*
Y957735D01*
X1287884Y953291D01*
X1289618Y949105D01*
X1292135Y945338D01*
X1295338Y942135D01*
X1299105Y939618D01*
X1303291Y937884D01*
X1307735Y937000D01*
X1312265D01*
X1316709Y937884D01*
X1320895Y939618D01*
X1324662Y942135D01*
X1327865Y945338D01*
X1330382Y949105D01*
X1332116Y953291D01*
X1333000Y957735D01*
Y962265D01*
X1332116Y966709D01*
X1330382Y970895D01*
X1327865Y974662D01*
X1324662Y977865D01*
X1320895Y980382D01*
X1316709Y982116D01*
X1312265Y983000D01*
D02*
G37*
G36*
X802265D02*
X797735D01*
X793291Y982116D01*
X789105Y980382D01*
X785338Y977865D01*
X782135Y974662D01*
X779618Y970895D01*
X777884Y966709D01*
X777000Y962265D01*
Y957735D01*
X777884Y953291D01*
X779618Y949105D01*
X782135Y945338D01*
X785338Y942135D01*
X789105Y939618D01*
X793291Y937884D01*
X797735Y937000D01*
X802265D01*
X806709Y937884D01*
X810895Y939618D01*
X814662Y942135D01*
X817865Y945338D01*
X820382Y949105D01*
X822116Y953291D01*
X823000Y957735D01*
Y962265D01*
X822116Y966709D01*
X820382Y970895D01*
X817865Y974662D01*
X814662Y977865D01*
X810895Y980382D01*
X806709Y982116D01*
X802265Y983000D01*
D02*
G37*
G36*
X332265D02*
X327735D01*
X323291Y982116D01*
X319105Y980382D01*
X315338Y977865D01*
X312135Y974662D01*
X309618Y970895D01*
X307884Y966709D01*
X307000Y962265D01*
Y957735D01*
X307884Y953291D01*
X309618Y949105D01*
X312135Y945338D01*
X315338Y942135D01*
X319105Y939618D01*
X323291Y937884D01*
X327735Y937000D01*
X332265D01*
X336709Y937884D01*
X340895Y939618D01*
X344662Y942135D01*
X347865Y945338D01*
X350382Y949105D01*
X352116Y953291D01*
X353000Y957735D01*
Y962265D01*
X352116Y966709D01*
X350382Y970895D01*
X347865Y974662D01*
X344662Y977865D01*
X340895Y980382D01*
X336709Y982116D01*
X332265Y983000D01*
D02*
G37*
%LPD*%
D22*
X715010Y1019810D02*
D03*
X689610D02*
D03*
X562610Y1146810D02*
D03*
X537210D02*
D03*
X588010D02*
D03*
X613410D02*
D03*
X638810D02*
D03*
X664210D02*
D03*
X689610D02*
D03*
X715010D02*
D03*
X664210Y1019810D02*
D03*
X638810D02*
D03*
X613410D02*
D03*
X588010D02*
D03*
X562610D02*
D03*
D24*
X537210D02*
D03*
D29*
X612140Y1236980D02*
D03*
X592140D02*
D03*
X572140D02*
D03*
X552140D02*
D03*
D30*
X532140D02*
D03*
D33*
X923290Y985520D02*
Y1008380D01*
X866140Y1065530D02*
X923290Y1008380D01*
X636270Y1065530D02*
X866140D01*
X885190Y1102360D02*
X957580Y1029970D01*
X726440Y1102360D02*
X885190D01*
X957580Y985520D02*
Y1029970D01*
X527050Y1173480D02*
X603250D01*
X514350Y1160780D02*
X527050Y1173480D01*
X603250D02*
X612140Y1182370D01*
X627380Y1186180D02*
X697230D01*
X566420Y1203960D02*
X609600D01*
X627380Y1186180D01*
X715010Y1113790D02*
X726440Y1102360D01*
X715010Y1146810D02*
Y1168400D01*
X697230Y1186180D02*
X715010Y1168400D01*
X552140Y1236980D02*
X552450Y1236670D01*
Y1217930D02*
Y1236670D01*
Y1217930D02*
X566420Y1203960D01*
X562610Y1019810D02*
Y1049020D01*
X514350Y1097280D02*
Y1160780D01*
Y1097280D02*
X562610Y1049020D01*
X613410Y1088390D02*
X636270Y1065530D01*
X613410Y1088390D02*
Y1146810D01*
X715010Y1113790D02*
Y1146810D01*
D37*
X807720Y1191000D02*
D03*
X1202720D02*
D03*
Y1016000D02*
D03*
X807720D02*
D03*
D38*
X367030Y1120140D02*
D03*
X1278580Y1048140D02*
D03*
D39*
Y1120140D02*
D03*
X367030Y1048140D02*
D03*
D40*
X307030Y1151640D02*
D03*
Y1016640D02*
D03*
X1338580D02*
D03*
Y1151640D02*
D03*
D41*
X688880Y948690D02*
D03*
D42*
X638880D02*
D03*
X563880D02*
D03*
X613880D02*
D03*
X663880D02*
D03*
X588880D02*
D03*
D43*
X800000Y960000D02*
D03*
X1310000Y1210000D02*
D03*
Y960000D02*
D03*
X330000D02*
D03*
Y1210000D02*
D03*
D44*
X923290Y985520D02*
D03*
X612140Y1182370D02*
D03*
X957580Y985520D02*
D03*
M02*
