G04*
G04 #@! TF.GenerationSoftware,Altium Limited,Altium Designer,25.8.1 (18)*
G04*
G04 Layer_Physical_Order=1*
G04 Layer_Color=255*
%FSLAX44Y44*%
%MOMM*%
G71*
G04*
G04 #@! TF.SameCoordinates,F8F0A343-2924-4F85-9C9D-BDB02173843C*
G04*
G04*
G04 #@! TF.FilePolarity,Positive*
G04*
G01*
G75*
%ADD16R,1.6000X3.2000*%
%ADD17R,1.0000X1.2500*%
%ADD18R,1.4500X1.2000*%
%ADD22O,1.5240X1.6000*%
%ADD24R,1.5240X1.6000*%
%ADD29C,1.2000*%
%ADD30R,1.2000X1.2000*%
%ADD33C,0.7000*%
%ADD34C,1.0000*%
%ADD35C,2.0000*%
%ADD36C,0.3810*%
%ADD37C,2.0000*%
%ADD38C,4.0500*%
%ADD39R,4.0500X4.0500*%
%ADD40C,2.7000*%
%ADD41R,1.4000X1.4000*%
%ADD42C,1.4000*%
%ADD43C,1.5240*%
%ADD44C,0.7000*%
D16*
X454660Y1093070D02*
D03*
Y1043070D02*
D03*
D17*
X711040Y1057910D02*
D03*
X691040D02*
D03*
D18*
X923290Y943770D02*
D03*
X957580D02*
D03*
X681990Y1235550D02*
D03*
X718820D02*
D03*
X755650D02*
D03*
X718820Y1215550D02*
D03*
X755650D02*
D03*
X923290Y963770D02*
D03*
X681990Y1215550D02*
D03*
X957580Y963770D02*
D03*
D22*
X715010Y1019810D02*
D03*
X689610D02*
D03*
X562610Y1146810D02*
D03*
X537210D02*
D03*
X588010D02*
D03*
X613410D02*
D03*
X638810D02*
D03*
X664210D02*
D03*
X689610D02*
D03*
X715010D02*
D03*
X664210Y1019810D02*
D03*
X638810D02*
D03*
X613410D02*
D03*
X588010D02*
D03*
X562610D02*
D03*
D24*
X537210D02*
D03*
D29*
X612140Y1236980D02*
D03*
X592140D02*
D03*
X572140D02*
D03*
X552140D02*
D03*
D30*
X532140D02*
D03*
D33*
X613880Y948690D02*
Y1019340D01*
X923290Y963770D02*
Y985520D01*
X681990Y1235550D02*
X718820D01*
X755650D01*
X1158170D02*
X1202720Y1191000D01*
X755650Y1235550D02*
X1158170D01*
X508000Y1126490D02*
X579120D01*
X499110Y1135380D02*
Y1182370D01*
X579120Y1126490D02*
X588010Y1135380D01*
Y1146810D01*
X499110Y1135380D02*
X508000Y1126490D01*
X638810Y1146810D02*
Y1196340D01*
X656590Y1214120D02*
X682274D01*
X638810Y1196340D02*
X656590Y1214120D01*
X680720Y1183640D02*
X708660D01*
X664210Y1146810D02*
Y1167130D01*
X680720Y1183640D01*
X563880Y948690D02*
Y972820D01*
X588010Y996950D02*
Y1019810D01*
X563880Y972820D02*
X588010Y996950D01*
X612140Y1182370D02*
Y1236980D01*
X664210Y998220D02*
Y1019810D01*
Y998220D02*
X688880Y973550D01*
Y948690D02*
Y973550D01*
X638880Y948690D02*
Y1019740D01*
X957580Y963770D02*
Y985520D01*
X708660Y1183640D02*
X718820Y1193800D01*
Y1215550D01*
X737870Y1169670D02*
X755650Y1187450D01*
Y1215550D01*
X698500Y1169670D02*
X737870D01*
X689610Y1160780D02*
X698500Y1169670D01*
X689610Y1146810D02*
Y1160780D01*
X499110Y1182370D02*
X532140Y1215400D01*
Y1236980D01*
X592140Y1203010D02*
Y1236980D01*
X562610Y1173480D02*
X592140Y1203010D01*
X562610Y1146810D02*
Y1173480D01*
X537210D02*
X572140Y1208410D01*
Y1236980D01*
X537210Y1146810D02*
Y1173480D01*
D34*
X689610Y1056480D02*
X691040Y1057910D01*
X689610Y1019810D02*
Y1056480D01*
X715010Y1019810D02*
Y1096010D01*
Y1098550D01*
X957580Y943770D02*
X1240950D01*
X923290D02*
X957580D01*
X1202560Y1131410D02*
X1202720Y1131570D01*
X1240950Y943770D02*
X1278580Y981400D01*
Y1048140D01*
X588010Y1146810D02*
X613410D01*
D35*
X365760Y1117600D02*
X370840D01*
X395370Y1093070D01*
X454660D02*
X457600Y1096010D01*
X807720Y1132840D02*
Y1191000D01*
X715010Y1096010D02*
X770890D01*
X807720Y1132840D01*
X457600Y1096010D02*
X715010D01*
X395370Y1093070D02*
X454660D01*
X1202720Y1131570D02*
Y1191000D01*
Y1083280D02*
Y1131570D01*
X1202720Y1083280D02*
X1237860Y1048140D01*
X1278580D01*
X372100Y1043070D02*
X452120D01*
X367030Y1048140D02*
X372100Y1043070D01*
D36*
X613410Y949160D02*
X613880Y948690D01*
X638810Y1019810D02*
X638880Y1019740D01*
D37*
X807720Y1191000D02*
D03*
X1202720D02*
D03*
Y1016000D02*
D03*
X807720D02*
D03*
D38*
X367030Y1120140D02*
D03*
X1278580Y1048140D02*
D03*
D39*
Y1120140D02*
D03*
X367030Y1048140D02*
D03*
D40*
X307030Y1151640D02*
D03*
Y1016640D02*
D03*
X1338580D02*
D03*
Y1151640D02*
D03*
D41*
X688880Y948690D02*
D03*
D42*
X638880D02*
D03*
X563880D02*
D03*
X613880D02*
D03*
X663880D02*
D03*
X588880D02*
D03*
D43*
X800000Y960000D02*
D03*
X1310000Y1210000D02*
D03*
Y960000D02*
D03*
X330000D02*
D03*
Y1210000D02*
D03*
D44*
X923290Y985520D02*
D03*
X612140Y1182370D02*
D03*
X957580Y985520D02*
D03*
M02*
