G04*
G04 #@! TF.GenerationSoftware,Altium Limited,Altium Designer,25.8.1 (18)*
G04*
G04 Layer_Color=8421504*
%FSLAX44Y44*%
%MOMM*%
G71*
G04*
G04 #@! TF.SameCoordinates,5983EDC3-4ECE-46C9-A552-0EA99BB4F25C*
G04*
G04*
G04 #@! TF.FilePolarity,Positive*
G04*
G01*
G75*
%ADD16O,0.9000X0.2500*%
%ADD17O,0.2500X0.9000*%
%ADD18R,5.6000X5.6000*%
%ADD19R,1.2500X1.0000*%
%ADD20R,0.7000X1.6000*%
%ADD21R,1.2000X1.4500*%
%ADD22R,1.3000X1.1000*%
%ADD23R,1.4500X1.2000*%
%ADD24R,0.9500X1.4000*%
%ADD25O,2.5400X0.9000*%
%ADD26R,0.9000X1.0000*%
%ADD27R,1.1500X0.3000*%
%ADD28R,0.4200X0.6400*%
%ADD29R,1.0000X1.2500*%
%ADD30R,1.7000X0.5500*%
%ADD31R,1.1500X0.6000*%
%ADD32R,1.6000X2.5000*%
%ADD33R,2.0000X2.1800*%
%ADD34R,1.1700X1.8200*%
%ADD35R,1.1500X1.4500*%
D16*
X1067000Y500500D02*
D03*
Y515500D02*
D03*
Y495500D02*
D03*
X998000Y485500D02*
D03*
X1067000Y525500D02*
D03*
Y485500D02*
D03*
X998000Y495500D02*
D03*
Y500500D02*
D03*
Y510500D02*
D03*
Y515500D02*
D03*
Y520500D02*
D03*
Y525500D02*
D03*
Y530500D02*
D03*
Y535500D02*
D03*
Y540500D02*
D03*
X1067000D02*
D03*
Y535500D02*
D03*
Y530500D02*
D03*
Y510500D02*
D03*
Y505500D02*
D03*
Y490500D02*
D03*
X998000D02*
D03*
X1067000Y520500D02*
D03*
X998000Y505500D02*
D03*
D17*
X1040000Y478500D02*
D03*
X1060000D02*
D03*
X1005000Y547500D02*
D03*
X1050000Y478500D02*
D03*
X1045000D02*
D03*
X1035000D02*
D03*
X1030000D02*
D03*
X1025000D02*
D03*
X1020000D02*
D03*
X1015000D02*
D03*
X1010000D02*
D03*
X1005000D02*
D03*
X1015000Y547500D02*
D03*
X1020000D02*
D03*
X1025000D02*
D03*
X1030000D02*
D03*
X1035000D02*
D03*
X1040000D02*
D03*
X1045000D02*
D03*
X1050000D02*
D03*
X1055000D02*
D03*
X1060000D02*
D03*
X1010000D02*
D03*
X1055000Y478500D02*
D03*
D18*
X1032500Y513000D02*
D03*
D19*
X1120000Y462500D02*
D03*
X1152000Y517500D02*
D03*
X1302500Y502500D02*
D03*
X1010000Y572500D02*
D03*
X975000Y485000D02*
D03*
X960000Y592500D02*
D03*
X957500Y650000D02*
D03*
X1010000Y592500D02*
D03*
X985000D02*
D03*
X985000Y650000D02*
D03*
X1012500Y697500D02*
D03*
X1120000Y442500D02*
D03*
X1092500D02*
D03*
X1302500Y522500D02*
D03*
X1087500Y530000D02*
D03*
X1152000Y537500D02*
D03*
X1095000Y697500D02*
D03*
X1152000Y577500D02*
D03*
X1402500Y715000D02*
D03*
X975000Y465000D02*
D03*
X960000Y572500D02*
D03*
X985000D02*
D03*
X1092500Y462500D02*
D03*
X1095000Y717500D02*
D03*
X1402500Y735000D02*
D03*
X1087500Y550000D02*
D03*
X985000Y670000D02*
D03*
X957500Y670000D02*
D03*
X1012500Y717500D02*
D03*
X1152000Y557500D02*
D03*
D20*
X1158500Y428500D02*
D03*
X1213500Y451500D02*
D03*
X1158500D02*
D03*
X1213500Y428500D02*
D03*
D21*
X1104500Y492500D02*
D03*
X940000Y555000D02*
D03*
Y530000D02*
D03*
X1032500Y452500D02*
D03*
X1012500D02*
D03*
X1327500Y545000D02*
D03*
Y577500D02*
D03*
X920000Y555000D02*
D03*
Y530000D02*
D03*
X1347500Y545000D02*
D03*
Y577500D02*
D03*
X1124500Y492500D02*
D03*
D22*
X1183500Y533500D02*
D03*
Y551500D02*
D03*
X1206500Y533500D02*
D03*
Y551500D02*
D03*
D23*
X1122500Y525000D02*
D03*
X1302500Y477500D02*
D03*
X890000Y480000D02*
D03*
Y607500D02*
D03*
X1302500Y457500D02*
D03*
X890000Y587500D02*
D03*
Y500000D02*
D03*
X1122500Y545000D02*
D03*
D24*
X1392000Y577500D02*
D03*
Y545000D02*
D03*
X1373000D02*
D03*
Y577500D02*
D03*
D25*
X1447500Y680000D02*
D03*
Y654600D02*
D03*
Y667300D02*
D03*
Y705400D02*
D03*
Y641900D02*
D03*
Y692700D02*
D03*
Y718100D02*
D03*
Y730800D02*
D03*
D26*
X1359500Y484500D02*
D03*
X1360000Y431500D02*
D03*
X1359500Y500500D02*
D03*
X1400500D02*
D03*
X1360000Y447500D02*
D03*
X1400500Y484500D02*
D03*
X1401000Y431500D02*
D03*
Y447500D02*
D03*
D27*
X839280Y509000D02*
D03*
Y512000D02*
D03*
Y576000D02*
D03*
Y573000D02*
D03*
Y550000D02*
D03*
Y540000D02*
D03*
Y565000D02*
D03*
Y560000D02*
D03*
Y535000D02*
D03*
Y525000D02*
D03*
Y520000D02*
D03*
Y517000D02*
D03*
Y530000D02*
D03*
Y545000D02*
D03*
Y555000D02*
D03*
Y568000D02*
D03*
D28*
X867500Y517500D02*
D03*
Y567500D02*
D03*
Y552500D02*
D03*
Y532500D02*
D03*
D29*
X1050000Y452500D02*
D03*
X1170000Y492500D02*
D03*
X1070000Y452500D02*
D03*
X1150000Y492500D02*
D03*
D30*
X1380500Y453750D02*
D03*
X1380000Y506750D02*
D03*
D31*
X1047000Y707500D02*
D03*
X1073000Y717000D02*
D03*
X1047000D02*
D03*
Y698000D02*
D03*
X1073000D02*
D03*
D32*
X1297500Y697500D02*
D03*
Y732500D02*
D03*
D33*
X833530Y491400D02*
D03*
Y593600D02*
D03*
X794230Y491400D02*
D03*
Y593600D02*
D03*
D34*
X897300Y692500D02*
D03*
X927700D02*
D03*
D35*
X957191D02*
D03*
X975191D02*
D03*
M02*
