M48
;Layer_Color=9474304
;FILE_FORMAT=4:4
METRIC,LZ
;TYPE=PLATED
T01F00S00C0.2000
T02F00S00C0.3000
T03F00S00C0.7620
T04F00S00C3.6000
;TYPE=NON_PLATED
T05F00S00C0.6500
%
T01
X010105Y00491
X010215
X010325
X010435
Y00502
X010325
X010215
X010105
Y00513
X010215
X010325
X010435
Y00524
Y00535
X010325
Y00524
X010215
X010105
Y00535
X010215
X010545
Y00524
Y00513
Y00502
Y00491
T02
X01035Y003825
X012275
X0127
X01335Y003975
X013925Y004025
X01355Y005225
X012075Y005175
X01275Y00625
Y006625
X01265Y00695
X01355Y00705
X01375Y00715
X014775Y00685
Y00574431
X01171159Y005775
X01125Y0061
X01085Y0064
X010425Y0061
X0101
X009375Y0065
X009075Y005675
X009025Y005175
X00925Y004575
X00955Y0047
X010125Y00435
X010325
X010925Y004125
X010975Y00565
X011125Y007075
X0103
X00815Y005775
X00815582Y00505582
T03
X009159Y0036
X009413
X009667
X009921
X010175
T04
X0083Y0038
X015
X0083Y007
T05
X0082853Y005136
Y005714
M30
