G04*
G04 #@! TF.GenerationSoftware,Altium Limited,Altium Designer,25.8.1 (18)*
G04*
G04 Layer_Color=16711935*
%FSLAX44Y44*%
%MOMM*%
G71*
G04*
G04 #@! TF.SameCoordinates,5983EDC3-4ECE-46C9-A552-0EA99BB4F25C*
G04*
G04*
G04 #@! TF.FilePolarity,Negative*
G04*
G01*
G75*
%ADD52C,1.7272*%
%ADD53C,0.5282*%
%ADD54C,0.9032*%
%ADD55C,0.7032*%
%ADD56C,0.6032*%
D52*
X992100Y360000D02*
D03*
X1017500D02*
D03*
X966700D02*
D03*
X915900D02*
D03*
X941300D02*
D03*
X1500000Y380000D02*
D03*
X830000Y700000D02*
D03*
Y380000D02*
D03*
D53*
X828530Y513600D02*
D03*
Y571400D02*
D03*
D54*
X1032500Y435000D02*
D03*
X1092500Y412500D02*
D03*
X1112500Y707500D02*
D03*
X955000Y470000D02*
D03*
X1477500Y574431D02*
D03*
X1275000Y662500D02*
D03*
X1265000Y695000D02*
D03*
X1275000Y625000D02*
D03*
X1355000Y705000D02*
D03*
X1085000Y640000D02*
D03*
X1125000Y610000D02*
D03*
X1042500D02*
D03*
X1335000Y397500D02*
D03*
X815582Y505582D02*
D03*
X902500Y517500D02*
D03*
X907500Y567500D02*
D03*
X815000Y577500D02*
D03*
X937500Y650000D02*
D03*
X1010000Y610000D02*
D03*
X1392500Y402500D02*
D03*
X1207500Y517500D02*
D03*
X1375000Y715000D02*
D03*
X1012500Y435000D02*
D03*
X1171159Y577500D02*
D03*
X1030000Y707500D02*
D03*
X1227500Y382500D02*
D03*
X1477500Y685000D02*
D03*
X1270000Y382500D02*
D03*
X925000Y457500D02*
D03*
X1035000Y382500D02*
D03*
X1097500Y565000D02*
D03*
D55*
X1043500Y491000D02*
D03*
X1032500D02*
D03*
X1021500D02*
D03*
X1010500D02*
D03*
X1021500Y502000D02*
D03*
X1010500Y513000D02*
D03*
Y502000D02*
D03*
X1021500Y513000D02*
D03*
X1032500Y502000D02*
D03*
X1043500D02*
D03*
Y513000D02*
D03*
X1032500D02*
D03*
X1010500Y535000D02*
D03*
Y524000D02*
D03*
X1021500D02*
D03*
X1043500D02*
D03*
X1032500D02*
D03*
X1021500Y535000D02*
D03*
X1043500D02*
D03*
X1032500D02*
D03*
X1054500Y491000D02*
D03*
Y502000D02*
D03*
Y513000D02*
D03*
Y535000D02*
D03*
Y524000D02*
D03*
D56*
X1355000Y522500D02*
D03*
M02*
