G04*
G04 #@! TF.GenerationSoftware,Altium Limited,Altium Designer,25.8.1 (18)*
G04*
G04 Layer_Color=65535*
%FSLAX44Y44*%
%MOMM*%
G71*
G04*
G04 #@! TF.SameCoordinates,5983EDC3-4ECE-46C9-A552-0EA99BB4F25C*
G04*
G04*
G04 #@! TF.FilePolarity,Positive*
G04*
G01*
G75*
%ADD10C,0.2500*%
%ADD11C,0.1000*%
%ADD12C,0.2000*%
%ADD13C,0.2540*%
%ADD14C,0.1270*%
%ADD15C,0.1500*%
D10*
X1077250Y477500D02*
G03*
X1077250Y477500I-1250J0D01*
G01*
X1350250Y500500D02*
G03*
X1350250Y500500I-1250J0D01*
G01*
X1350750Y447500D02*
G03*
X1350750Y447500I-1250J0D01*
G01*
D11*
X1213500Y464000D02*
G03*
X1213500Y465000I0J500D01*
G01*
D02*
G03*
X1213500Y464000I0J-500D01*
G01*
X1172000Y533500D02*
G03*
X1173000Y533500I500J0D01*
G01*
D02*
G03*
X1172000Y533500I-500J0D01*
G01*
X810000Y497800D02*
X820000D01*
X810000D02*
X820000D01*
X810000Y587200D02*
X817500D01*
X810000D02*
Y587500D01*
X817500D01*
Y587200D02*
Y587500D01*
D12*
X849500Y576500D02*
G03*
X849500Y575500I0J-500D01*
G01*
D02*
G03*
X849500Y576500I0J500D01*
G01*
D02*
G03*
X849500Y575500I0J-500D01*
G01*
X1065250Y550000D02*
X1069500D01*
Y545750D02*
Y550000D01*
X995500D02*
X999750D01*
X995500Y545750D02*
Y550000D01*
Y476000D02*
Y480250D01*
Y476000D02*
X999750D01*
X1065250D02*
X1069500D01*
Y480250D01*
X1166000Y421500D02*
X1206000D01*
X1166000Y458500D02*
X1206000D01*
X1142500Y421500D02*
X1152000D01*
X1142500D02*
Y458500D01*
X1152000D01*
X1220000Y421500D02*
X1229500D01*
X1230000Y458500D01*
X1220000D02*
X1230000D01*
X929000Y548750D02*
X931000D01*
X929000Y561250D02*
X931000D01*
X871500Y554000D02*
Y566000D01*
X863500Y549300D02*
Y566000D01*
X1077500Y528950D02*
Y551050D01*
X1097500Y528950D02*
Y551050D01*
X1021500Y458750D02*
X1023500D01*
X1021500Y446250D02*
X1023500D01*
X871500Y519000D02*
Y535700D01*
X863500Y519000D02*
Y531000D01*
X912500Y685250D02*
Y699750D01*
X1056250Y722500D02*
X1063750D01*
Y692500D02*
Y722500D01*
X1056250Y692500D02*
X1063750D01*
X1056250D02*
Y722500D01*
X1041250D02*
X1052750D01*
X966191Y687250D02*
Y697750D01*
X1364750Y555500D02*
X1392000D01*
X1364750Y534500D02*
Y555500D01*
Y534500D02*
X1392000D01*
X1364750Y588000D02*
X1392000D01*
X1364750Y567000D02*
Y588000D01*
Y567000D02*
X1392000D01*
X1193000Y555000D02*
X1197000D01*
X1193000Y530000D02*
X1197000D01*
X1392250Y510250D02*
X1401000D01*
X1359000D02*
X1367750D01*
X1359000Y474750D02*
X1401000D01*
X1392750Y457250D02*
X1401500D01*
X1359500D02*
X1368250D01*
X1359500Y421750D02*
X1401500D01*
X1148950Y482500D02*
X1171050D01*
X1148950Y502500D02*
X1171050D01*
X985000Y463950D02*
Y486050D01*
X965000Y463950D02*
Y486050D01*
X929000Y536250D02*
X931000D01*
X929000Y523750D02*
X931000D01*
X950000Y571450D02*
Y593550D01*
X970000Y571450D02*
Y593550D01*
X1020000Y571450D02*
Y593550D01*
X1000000Y571450D02*
Y593550D01*
X975000Y571450D02*
Y593550D01*
X995000Y571450D02*
Y593550D01*
X975000Y648950D02*
Y671050D01*
X995000Y648950D02*
Y671050D01*
X947500Y648950D02*
Y671050D01*
X967500Y648950D02*
Y671050D01*
X1308750Y466500D02*
Y468500D01*
X1296250Y466500D02*
Y468500D01*
X1292500Y501450D02*
Y523550D01*
X1312500Y501450D02*
Y523550D01*
X1319000Y693500D02*
Y725000D01*
X1312500Y693500D02*
X1319000D01*
X1276000D02*
Y725000D01*
Y693500D02*
X1282500D01*
X1312500D02*
X1319000D01*
Y725000D01*
X1412500Y713950D02*
Y736050D01*
X1392500Y713950D02*
Y736050D01*
X1336500Y551250D02*
X1338500D01*
X1336500Y538750D02*
X1338500D01*
X1336500Y583750D02*
X1338500D01*
X1336500Y571250D02*
X1338500D01*
X896250Y596500D02*
Y598500D01*
X883750Y596500D02*
Y598500D01*
Y489000D02*
Y491000D01*
X896250Y489000D02*
Y491000D01*
X1022500Y696450D02*
Y718550D01*
X1002500Y696450D02*
Y718550D01*
X1105000Y696450D02*
Y718550D01*
X1085000Y696450D02*
Y718550D01*
X1113500Y486250D02*
X1115500D01*
X1113500Y498750D02*
X1115500D01*
X1116250Y534000D02*
Y536000D01*
X1128750Y534000D02*
Y536000D01*
X1142000Y556450D02*
Y578550D01*
X1162000Y556450D02*
Y578550D01*
X1130000Y441450D02*
Y463550D01*
X1110000Y441450D02*
Y463550D01*
X1142000Y516450D02*
Y538550D01*
X1162000Y516450D02*
Y538550D01*
X1082500Y441450D02*
Y463550D01*
X1102500Y441450D02*
Y463550D01*
X1048950Y462500D02*
X1071050D01*
X1048950Y442500D02*
X1071050D01*
D13*
X900660Y344760D02*
Y375240D01*
X1032740Y344760D02*
Y352380D01*
X900660Y344760D02*
X1032740D01*
Y352380D02*
Y367620D01*
Y375240D01*
X900660D02*
X1032740D01*
X1276310Y680080D02*
X1286467D01*
X1024960Y382540D02*
X1009725D01*
Y390158D01*
X1012264Y392697D01*
X1017343D01*
X1019882Y390158D01*
Y382540D01*
Y387618D02*
X1024960Y392697D01*
X1012264Y407932D02*
X1009725Y405393D01*
Y400314D01*
X1012264Y397775D01*
X1014803D01*
X1017343Y400314D01*
Y405393D01*
X1019882Y407932D01*
X1022421D01*
X1024960Y405393D01*
Y400314D01*
X1022421Y397775D01*
X1009725Y413010D02*
Y423167D01*
Y418088D01*
X1024960D01*
X987264Y392697D02*
X984725Y390158D01*
Y385079D01*
X987264Y382540D01*
X997421D01*
X999960Y385079D01*
Y390158D01*
X997421Y392697D01*
X992343D01*
Y387618D01*
X999960Y397775D02*
X984725D01*
X999960Y407932D01*
X984725D01*
Y413010D02*
X999960D01*
Y420628D01*
X997421Y423167D01*
X987264D01*
X984725Y420628D01*
Y413010D01*
X961415Y392747D02*
X958876Y390207D01*
Y385129D01*
X961415Y382590D01*
X963954D01*
X966493Y385129D01*
Y390207D01*
X969033Y392747D01*
X971572D01*
X974111Y390207D01*
Y385129D01*
X971572Y382590D01*
X958876Y397825D02*
X974111D01*
X969033Y402903D01*
X974111Y407981D01*
X958876D01*
X961415Y423217D02*
X958876Y420677D01*
Y415599D01*
X961415Y413060D01*
X971572D01*
X974111Y415599D01*
Y420677D01*
X971572Y423217D01*
X958876Y428295D02*
X974111D01*
Y438452D01*
X958876Y443530D02*
X974111D01*
X969033D01*
X958876Y453687D01*
X966493Y446069D01*
X974111Y453687D01*
X935127Y395166D02*
X932588Y392626D01*
Y387548D01*
X935127Y385009D01*
X937666D01*
X940206Y387548D01*
Y392626D01*
X942745Y395166D01*
X945284D01*
X947823Y392626D01*
Y387548D01*
X945284Y385009D01*
X932588Y400244D02*
X947823D01*
X942745Y405322D01*
X947823Y410401D01*
X932588D01*
Y415479D02*
X947823D01*
Y423097D01*
X945284Y425636D01*
X935127D01*
X932588Y423097D01*
Y415479D01*
Y430714D02*
Y435793D01*
Y433253D01*
X947823D01*
Y430714D01*
Y435793D01*
X932588Y451027D02*
Y445949D01*
X935127Y443410D01*
X945284D01*
X947823Y445949D01*
Y451027D01*
X945284Y453567D01*
X935127D01*
X932588Y451027D01*
X914842Y382540D02*
Y392697D01*
X909764Y387618D02*
X919921D01*
X909764Y397775D02*
X907225Y400314D01*
Y405393D01*
X909764Y407932D01*
X912303D01*
X914842Y405393D01*
Y402853D01*
Y405393D01*
X917382Y407932D01*
X919921D01*
X922460Y405393D01*
Y400314D01*
X919921Y397775D01*
X907225Y413010D02*
X917382D01*
X922460Y418088D01*
X917382Y423167D01*
X907225D01*
X909764Y428245D02*
X907225Y430784D01*
Y435863D01*
X909764Y438402D01*
X912303D01*
X914842Y435863D01*
Y433324D01*
Y435863D01*
X917382Y438402D01*
X919921D01*
X922460Y435863D01*
Y430784D01*
X919921Y428245D01*
D14*
X1432260Y626800D02*
X1547830D01*
Y746800D01*
X1432260D02*
X1547830D01*
X1432260Y626800D02*
Y746800D01*
D15*
X1416842Y541500D02*
Y551497D01*
X1421840D01*
X1423506Y549831D01*
Y546498D01*
X1421840Y544832D01*
X1416842D01*
X1431837Y551497D02*
X1428505D01*
X1426839Y549831D01*
Y543166D01*
X1428505Y541500D01*
X1431837D01*
X1433503Y543166D01*
Y549831D01*
X1431837Y551497D01*
X1436835D02*
Y541500D01*
X1440168Y544832D01*
X1443500Y541500D01*
Y551497D01*
X1416500Y484000D02*
Y493997D01*
X1421498D01*
X1423165Y492331D01*
Y488998D01*
X1421498Y487332D01*
X1416500D01*
X1419832D02*
X1423165Y484000D01*
X1433161Y492331D02*
X1431495Y493997D01*
X1428163D01*
X1426497Y492331D01*
Y490664D01*
X1428163Y488998D01*
X1431495D01*
X1433161Y487332D01*
Y485666D01*
X1431495Y484000D01*
X1428163D01*
X1426497Y485666D01*
X1436494Y493997D02*
X1443158D01*
X1439826D01*
Y484000D01*
X1416500Y441497D02*
Y431500D01*
X1421498D01*
X1423165Y433166D01*
Y434832D01*
X1421498Y436498D01*
X1416500D01*
X1421498D01*
X1423165Y438164D01*
Y439831D01*
X1421498Y441497D01*
X1416500D01*
X1431495D02*
X1428163D01*
X1426497Y439831D01*
Y433166D01*
X1428163Y431500D01*
X1431495D01*
X1433161Y433166D01*
Y439831D01*
X1431495Y441497D01*
X1441492D02*
X1438160D01*
X1436494Y439831D01*
Y433166D01*
X1438160Y431500D01*
X1441492D01*
X1443158Y433166D01*
Y439831D01*
X1441492Y441497D01*
X1446490D02*
X1453155D01*
X1449823D01*
Y431500D01*
X1456487Y439831D02*
X1458153Y441497D01*
X1461485D01*
X1463152Y439831D01*
Y433166D01*
X1461485Y431500D01*
X1458153D01*
X1456487Y433166D01*
Y439831D01*
X1416500Y578997D02*
Y569000D01*
X1423165D01*
X1433161Y578997D02*
X1426497D01*
Y569000D01*
X1433161D01*
X1426497Y573998D02*
X1429829D01*
X1436494Y578997D02*
Y569000D01*
X1441492D01*
X1443158Y570666D01*
Y577331D01*
X1441492Y578997D01*
X1436494D01*
X882934Y354998D02*
X879602D01*
X881268D01*
Y346668D01*
X879602Y345002D01*
X877935D01*
X876269Y346668D01*
X892931Y345002D02*
X886266D01*
X892931Y351666D01*
Y353332D01*
X891264Y354998D01*
X887932D01*
X886266Y353332D01*
X975835Y549998D02*
Y541668D01*
X977502Y540002D01*
X980834D01*
X982500Y541668D01*
Y549998D01*
X985832Y540002D02*
X989165D01*
X987498D01*
Y549998D01*
X985832Y548332D01*
X1140835Y472498D02*
Y470832D01*
X1144168Y467500D01*
X1147500Y470832D01*
Y472498D01*
X1144168Y467500D02*
Y462502D01*
X1150832D02*
X1154165D01*
X1152498D01*
Y472498D01*
X1150832Y470832D01*
X881669Y562498D02*
Y552502D01*
X886668D01*
X888334Y554168D01*
Y560832D01*
X886668Y562498D01*
X881669D01*
X898331Y552502D02*
X891666D01*
X898331Y559166D01*
Y560832D01*
X896665Y562498D01*
X893332D01*
X891666Y560832D01*
X880835Y529998D02*
Y520002D01*
X885834D01*
X887500Y521668D01*
Y528332D01*
X885834Y529998D01*
X880835D01*
X890832Y520002D02*
X894165D01*
X892498D01*
Y529998D01*
X890832Y528332D01*
X1186669Y572498D02*
Y570832D01*
X1190002Y567500D01*
X1193334Y570832D01*
Y572498D01*
X1190002Y567500D02*
Y562502D01*
X1203331D02*
X1196666D01*
X1203331Y569166D01*
Y570832D01*
X1201665Y572498D01*
X1198332D01*
X1196666Y570832D01*
X1044170Y684998D02*
X1047502D01*
X1045836D01*
Y675002D01*
X1044170D01*
X1047502D01*
X1059165Y683332D02*
X1057499Y684998D01*
X1054167D01*
X1052501Y683332D01*
Y676668D01*
X1054167Y675002D01*
X1057499D01*
X1059165Y676668D01*
X1062498Y675002D02*
X1065830D01*
X1064164D01*
Y684998D01*
X1062498Y683332D01*
X960002Y719998D02*
X953337D01*
Y715000D01*
X956669D01*
X953337D01*
Y710002D01*
X963334Y719998D02*
Y710002D01*
X968332D01*
X969998Y711668D01*
Y713334D01*
X968332Y715000D01*
X963334D01*
X968332D01*
X969998Y716666D01*
Y718332D01*
X968332Y719998D01*
X963334D01*
X973331Y710002D02*
X976663D01*
X974997D01*
Y719998D01*
X973331Y718332D01*
X912500Y719998D02*
X905835D01*
Y715000D01*
X909168D01*
X905835D01*
Y710002D01*
X915832D02*
X919165D01*
X917498D01*
Y719998D01*
X915832Y718332D01*
X1251668Y725832D02*
X1250002Y727498D01*
X1246670D01*
X1245004Y725832D01*
Y719168D01*
X1246670Y717502D01*
X1250002D01*
X1251668Y719168D01*
X1255001Y717502D02*
X1258333D01*
X1256667D01*
Y727498D01*
X1255001Y725832D01*
X1263332Y719168D02*
X1264998Y717502D01*
X1268330D01*
X1269996Y719168D01*
Y725832D01*
X1268330Y727498D01*
X1264998D01*
X1263332Y725832D01*
Y724166D01*
X1264998Y722500D01*
X1269996D01*
X1529169Y619998D02*
Y611668D01*
X1530836Y610002D01*
X1534168D01*
X1535834Y611668D01*
Y619998D01*
X1545831Y610002D02*
X1539166D01*
X1545831Y616666D01*
Y618332D01*
X1544164Y619998D01*
X1540832D01*
X1539166Y618332D01*
X1378334Y735832D02*
X1376668Y737498D01*
X1373336D01*
X1371669Y735832D01*
Y729168D01*
X1373336Y727502D01*
X1376668D01*
X1378334Y729168D01*
X1381666Y735832D02*
X1383332Y737498D01*
X1386664D01*
X1388331Y735832D01*
Y734166D01*
X1386664Y732500D01*
X1388331Y730834D01*
Y729168D01*
X1386664Y727502D01*
X1383332D01*
X1381666Y729168D01*
Y730834D01*
X1383332Y732500D01*
X1381666Y734166D01*
Y735832D01*
X1383332Y732500D02*
X1386664D01*
X1299169Y540002D02*
Y549998D01*
X1304168D01*
X1305834Y548332D01*
Y545000D01*
X1304168Y543334D01*
X1299169D01*
X1302502D02*
X1305834Y540002D01*
X1314164D02*
Y549998D01*
X1309166Y545000D01*
X1315831D01*
X1303336Y572502D02*
Y582498D01*
X1308334D01*
X1310000Y580832D01*
Y577500D01*
X1308334Y575834D01*
X1303336D01*
X1306668D02*
X1310000Y572502D01*
X1313332D02*
X1316664D01*
X1314998D01*
Y582498D01*
X1313332Y580832D01*
X951669Y525002D02*
Y534998D01*
X956668D01*
X958334Y533332D01*
Y530000D01*
X956668Y528334D01*
X951669D01*
X955002D02*
X958334Y525002D01*
X968331Y534998D02*
X964998Y533332D01*
X961666Y530000D01*
Y526668D01*
X963332Y525002D01*
X966665D01*
X968331Y526668D01*
Y528334D01*
X966665Y530000D01*
X961666D01*
X951669Y550002D02*
Y559998D01*
X956668D01*
X958334Y558332D01*
Y555000D01*
X956668Y553334D01*
X951669D01*
X955002D02*
X958334Y550002D01*
X961666Y559998D02*
X968331D01*
Y558332D01*
X961666Y551668D01*
Y550002D01*
X980835Y638332D02*
X979169Y639998D01*
X975836D01*
X974170Y638332D01*
Y631668D01*
X975836Y630002D01*
X979169D01*
X980835Y631668D01*
X984167Y630002D02*
X987499D01*
X985833D01*
Y639998D01*
X984167Y638332D01*
X992498Y630002D02*
X995830D01*
X994164D01*
Y639998D01*
X992498Y638332D01*
X951668D02*
X950002Y639998D01*
X946670D01*
X945004Y638332D01*
Y631668D01*
X946670Y630002D01*
X950002D01*
X951668Y631668D01*
X955001Y630002D02*
X958333D01*
X956667D01*
Y639998D01*
X955001Y638332D01*
X963331D02*
X964998Y639998D01*
X968330D01*
X969996Y638332D01*
Y631668D01*
X968330Y630002D01*
X964998D01*
X963331Y631668D01*
Y638332D01*
X881669Y620002D02*
Y629998D01*
X886668D01*
X888334Y628332D01*
Y625000D01*
X886668Y623334D01*
X881669D01*
X885002D02*
X888334Y620002D01*
X891666Y628332D02*
X893332Y629998D01*
X896665D01*
X898331Y628332D01*
Y626666D01*
X896665Y625000D01*
X894998D01*
X896665D01*
X898331Y623334D01*
Y621668D01*
X896665Y620002D01*
X893332D01*
X891666Y621668D01*
X906669Y475002D02*
Y484998D01*
X911668D01*
X913334Y483332D01*
Y480000D01*
X911668Y478334D01*
X906669D01*
X910002D02*
X913334Y475002D01*
X923331D02*
X916666D01*
X923331Y481666D01*
Y483332D01*
X921665Y484998D01*
X918332D01*
X916666Y483332D01*
X1010834Y683332D02*
X1009168Y684998D01*
X1005835D01*
X1004169Y683332D01*
Y676668D01*
X1005835Y675002D01*
X1009168D01*
X1010834Y676668D01*
X1014166D02*
X1015832Y675002D01*
X1019165D01*
X1020831Y676668D01*
Y683332D01*
X1019165Y684998D01*
X1015832D01*
X1014166Y683332D01*
Y681666D01*
X1015832Y680000D01*
X1020831D01*
X1095000Y683332D02*
X1093334Y684998D01*
X1090002D01*
X1088335Y683332D01*
Y676668D01*
X1090002Y675002D01*
X1093334D01*
X1095000Y676668D01*
X1098332Y675002D02*
X1101665D01*
X1099998D01*
Y684998D01*
X1098332Y683332D01*
X1099169Y502502D02*
Y512498D01*
X1104168D01*
X1105834Y510832D01*
Y507500D01*
X1104168Y505834D01*
X1099169D01*
X1102502D02*
X1105834Y502502D01*
X1109166Y504168D02*
X1110832Y502502D01*
X1114165D01*
X1115831Y504168D01*
Y510832D01*
X1114165Y512498D01*
X1110832D01*
X1109166Y510832D01*
Y509166D01*
X1110832Y507500D01*
X1115831D01*
X1110004Y555002D02*
Y564998D01*
X1115002D01*
X1116668Y563332D01*
Y560000D01*
X1115002Y558334D01*
X1110004D01*
X1113336D02*
X1116668Y555002D01*
X1120001D02*
X1123333D01*
X1121667D01*
Y564998D01*
X1120001Y563332D01*
X1128331D02*
X1129998Y564998D01*
X1133330D01*
X1134996Y563332D01*
Y556668D01*
X1133330Y555002D01*
X1129998D01*
X1128331Y556668D01*
Y563332D01*
X1144169Y595832D02*
X1142502Y597498D01*
X1139170D01*
X1137504Y595832D01*
Y589168D01*
X1139170Y587502D01*
X1142502D01*
X1144169Y589168D01*
X1147501Y587502D02*
X1150833D01*
X1149167D01*
Y597498D01*
X1147501Y595832D01*
X1155832D02*
X1157498Y597498D01*
X1160830D01*
X1162496Y595832D01*
Y594166D01*
X1160830Y592500D01*
X1162496Y590834D01*
Y589168D01*
X1160830Y587502D01*
X1157498D01*
X1155832Y589168D01*
Y590834D01*
X1157498Y592500D01*
X1155832Y594166D01*
Y595832D01*
X1157498Y592500D02*
X1160830D01*
X1186668Y495832D02*
X1185002Y497498D01*
X1181670D01*
X1180004Y495832D01*
Y489168D01*
X1181670Y487502D01*
X1185002D01*
X1186668Y489168D01*
X1190001Y487502D02*
X1193333D01*
X1191667D01*
Y497498D01*
X1190001Y495832D01*
X1198332D02*
X1199998Y497498D01*
X1203330D01*
X1204996Y495832D01*
Y494166D01*
X1203330Y492500D01*
X1201664D01*
X1203330D01*
X1204996Y490834D01*
Y489168D01*
X1203330Y487502D01*
X1199998D01*
X1198332Y489168D01*
X1114168Y430832D02*
X1112502Y432498D01*
X1109170D01*
X1107504Y430832D01*
Y424168D01*
X1109170Y422502D01*
X1112502D01*
X1114168Y424168D01*
X1117501Y422502D02*
X1120833D01*
X1119167D01*
Y432498D01*
X1117501Y430832D01*
X1130830Y422502D02*
Y432498D01*
X1125832Y427500D01*
X1132496D01*
X1176668Y518332D02*
X1175002Y519998D01*
X1171670D01*
X1170004Y518332D01*
Y511668D01*
X1171670Y510002D01*
X1175002D01*
X1176668Y511668D01*
X1180001Y510002D02*
X1183333D01*
X1181667D01*
Y519998D01*
X1180001Y518332D01*
X1188332Y519998D02*
X1194996D01*
Y518332D01*
X1188332Y511668D01*
Y510002D01*
X1271669Y452502D02*
Y462498D01*
X1276668D01*
X1278334Y460832D01*
Y457500D01*
X1276668Y455834D01*
X1271669D01*
X1275002D02*
X1278334Y452502D01*
X1281666Y460832D02*
X1283332Y462498D01*
X1286664D01*
X1288331Y460832D01*
Y459166D01*
X1286664Y457500D01*
X1288331Y455834D01*
Y454168D01*
X1286664Y452502D01*
X1283332D01*
X1281666Y454168D01*
Y455834D01*
X1283332Y457500D01*
X1281666Y459166D01*
Y460832D01*
X1283332Y457500D02*
X1286664D01*
X984169Y445002D02*
Y454998D01*
X989168D01*
X990834Y453332D01*
Y450000D01*
X989168Y448334D01*
X984169D01*
X987502D02*
X990834Y445002D01*
X1000831Y454998D02*
X994166D01*
Y450000D01*
X997498Y451666D01*
X999165D01*
X1000831Y450000D01*
Y446668D01*
X999165Y445002D01*
X995832D01*
X994166Y446668D01*
X958334Y613332D02*
X956668Y614998D01*
X953335D01*
X951669Y613332D01*
Y606668D01*
X953335Y605002D01*
X956668D01*
X958334Y606668D01*
X968331Y605002D02*
X961666D01*
X968331Y611666D01*
Y613332D01*
X966665Y614998D01*
X963332D01*
X961666Y613332D01*
X970834Y503332D02*
X969168Y504998D01*
X965835D01*
X964169Y503332D01*
Y496668D01*
X965835Y495002D01*
X969168D01*
X970834Y496668D01*
X979165Y495002D02*
Y504998D01*
X974166Y500000D01*
X980831D01*
X1090834Y430832D02*
X1089168Y432498D01*
X1085835D01*
X1084169Y430832D01*
Y424168D01*
X1085835Y422502D01*
X1089168D01*
X1090834Y424168D01*
X1100831Y432498D02*
X1097498Y430832D01*
X1094166Y427500D01*
Y424168D01*
X1095832Y422502D01*
X1099165D01*
X1100831Y424168D01*
Y425834D01*
X1099165Y427500D01*
X1094166D01*
X1075834Y568332D02*
X1074168Y569998D01*
X1070835D01*
X1069169Y568332D01*
Y561668D01*
X1070835Y560002D01*
X1074168D01*
X1075834Y561668D01*
X1085831Y569998D02*
X1079166D01*
Y565000D01*
X1082498Y566666D01*
X1084165D01*
X1085831Y565000D01*
Y561668D01*
X1084165Y560002D01*
X1080832D01*
X1079166Y561668D01*
X983334Y613332D02*
X981668Y614998D01*
X978335D01*
X976669Y613332D01*
Y606668D01*
X978335Y605002D01*
X981668D01*
X983334Y606668D01*
X986666Y614998D02*
X993331D01*
Y613332D01*
X986666Y606668D01*
Y605002D01*
X1058334Y435832D02*
X1056668Y437498D01*
X1053335D01*
X1051669Y435832D01*
Y429168D01*
X1053335Y427502D01*
X1056668D01*
X1058334Y429168D01*
X1061666Y435832D02*
X1063332Y437498D01*
X1066665D01*
X1068331Y435832D01*
Y434166D01*
X1066665Y432500D01*
X1064998D01*
X1066665D01*
X1068331Y430834D01*
Y429168D01*
X1066665Y427502D01*
X1063332D01*
X1061666Y429168D01*
X1031668Y578332D02*
X1030002Y579998D01*
X1026670D01*
X1025004Y578332D01*
Y571668D01*
X1026670Y570002D01*
X1030002D01*
X1031668Y571668D01*
X1035001Y570002D02*
X1038333D01*
X1036667D01*
Y579998D01*
X1035001Y578332D01*
X1049996Y579998D02*
X1046664Y578332D01*
X1043332Y575000D01*
Y571668D01*
X1044998Y570002D01*
X1048330D01*
X1049996Y571668D01*
Y573334D01*
X1048330Y575000D01*
X1043332D01*
X837500Y472498D02*
X834168D01*
X835834D01*
Y464168D01*
X834168Y462502D01*
X832502D01*
X830835Y464168D01*
X840832Y462502D02*
X844165D01*
X842498D01*
Y472498D01*
X840832Y470832D01*
X1269168Y508332D02*
X1267502Y509998D01*
X1264170D01*
X1262504Y508332D01*
Y501668D01*
X1264170Y500002D01*
X1267502D01*
X1269168Y501668D01*
X1272501Y500002D02*
X1275833D01*
X1274167D01*
Y509998D01*
X1272501Y508332D01*
X1287496Y509998D02*
X1280831D01*
Y505000D01*
X1284164Y506666D01*
X1285830D01*
X1287496Y505000D01*
Y501668D01*
X1285830Y500002D01*
X1282498D01*
X1280831Y501668D01*
M02*
