G04*
G04 #@! TF.GenerationSoftware,Altium Limited,Altium Designer,25.8.1 (18)*
G04*
G04 Layer_Color=8388736*
%FSLAX44Y44*%
%MOMM*%
G71*
G04*
G04 #@! TF.SameCoordinates,96B50244-D1D5-4C2D-93FB-96D2E815F5E8*
G04*
G04*
G04 #@! TF.FilePolarity,Negative*
G04*
G01*
G75*
%ADD17R,1.2500X1.0000*%
%ADD21R,1.0000X1.2500*%
%ADD22R,0.9000X1.0000*%
%ADD24R,1.7000X0.5500*%
%ADD35R,1.6782X0.5032*%
%ADD36R,0.5032X1.6782*%
%ADD37R,1.7282X0.8532*%
%ADD38R,1.5032X1.3032*%
%ADD39R,1.4032X1.6532*%
%ADD40O,2.7432X1.1032*%
%ADD41R,1.8032X2.7032*%
%ADD42R,0.8032X1.9032*%
%ADD43R,2.7032X1.8032*%
%ADD44R,1.2032X2.9032*%
%ADD45R,0.9032X1.8032*%
%ADD46R,1.6532X1.4032*%
%ADD47R,1.3532X1.6532*%
%ADD48R,1.1532X1.6032*%
%ADD49C,2.9032*%
%ADD50C,4.2532*%
%ADD51R,4.2532X4.2532*%
%ADD52C,1.7272*%
%ADD53C,1.5240*%
%ADD54C,1.2000*%
%ADD55R,1.2000X1.2000*%
%ADD56C,0.9032*%
D17*
X731520Y522130D02*
D03*
X806450Y712310D02*
D03*
X930910Y520860D02*
D03*
X939800Y642780D02*
D03*
X631190Y855820D02*
D03*
X652780Y979330D02*
D03*
X718820D02*
D03*
X829310Y879950D02*
D03*
X861060D02*
D03*
X1016000Y636430D02*
D03*
X972820Y642620D02*
D03*
X1054100Y726600D02*
D03*
X1221740Y737710D02*
D03*
X990600Y765970D02*
D03*
X958850Y829470D02*
D03*
X1054100Y774860D02*
D03*
X1162050Y1026320D02*
D03*
Y1046320D02*
D03*
X958850Y849470D02*
D03*
X990600Y785970D02*
D03*
X972820Y662620D02*
D03*
X939800Y662780D02*
D03*
X930910Y540860D02*
D03*
X718820Y999330D02*
D03*
X829310Y859950D02*
D03*
X631190Y835820D02*
D03*
X806450Y692310D02*
D03*
X731520Y542130D02*
D03*
X652780Y999330D02*
D03*
X1054100Y794860D02*
D03*
X1016000Y656430D02*
D03*
X1221740Y717710D02*
D03*
X1054100Y746600D02*
D03*
X861060Y859950D02*
D03*
D21*
X1100930Y695960D02*
D03*
X1080930D02*
D03*
D22*
X1249500Y733170D02*
D03*
X1290500D02*
D03*
Y806830D02*
D03*
X1249500Y790830D02*
D03*
X1290500D02*
D03*
X1249500Y806830D02*
D03*
X1290500Y717170D02*
D03*
X1249500D02*
D03*
D24*
X1270000Y739420D02*
D03*
Y813080D02*
D03*
D35*
X836700Y720610D02*
D03*
X951460Y770610D02*
D03*
Y775610D02*
D03*
Y715610D02*
D03*
X836700D02*
D03*
X951460Y720610D02*
D03*
Y725610D02*
D03*
Y730610D02*
D03*
Y735610D02*
D03*
Y740610D02*
D03*
Y745610D02*
D03*
Y750610D02*
D03*
Y755610D02*
D03*
Y760610D02*
D03*
Y765610D02*
D03*
Y780610D02*
D03*
Y785610D02*
D03*
Y790610D02*
D03*
X836700D02*
D03*
Y785610D02*
D03*
Y780610D02*
D03*
Y775610D02*
D03*
Y770610D02*
D03*
Y765610D02*
D03*
Y760610D02*
D03*
Y755610D02*
D03*
Y750610D02*
D03*
Y745610D02*
D03*
Y740610D02*
D03*
Y735610D02*
D03*
Y730610D02*
D03*
Y725610D02*
D03*
D36*
X926580Y810490D02*
D03*
Y695730D02*
D03*
X861580Y810490D02*
D03*
X876580D02*
D03*
X901580D02*
D03*
X911580D02*
D03*
X906580D02*
D03*
X881580D02*
D03*
X856580D02*
D03*
X921580D02*
D03*
X931580Y695730D02*
D03*
X886580Y810490D02*
D03*
X916580D02*
D03*
X931580D02*
D03*
X896580D02*
D03*
X891580D02*
D03*
X871580D02*
D03*
X866580D02*
D03*
X856580Y695730D02*
D03*
X861580D02*
D03*
X866580D02*
D03*
X871580D02*
D03*
X876580D02*
D03*
X881580D02*
D03*
X886580D02*
D03*
X891580D02*
D03*
X896580D02*
D03*
X901580D02*
D03*
X906580D02*
D03*
X911580D02*
D03*
X916580D02*
D03*
X921580D02*
D03*
D37*
X667570Y873760D02*
D03*
Y861060D02*
D03*
Y835660D02*
D03*
Y848360D02*
D03*
X721810Y873760D02*
D03*
Y861060D02*
D03*
Y848360D02*
D03*
Y835660D02*
D03*
D38*
X1117670Y756810D02*
D03*
X1094670Y774810D02*
D03*
X1117670D02*
D03*
X1094670Y756810D02*
D03*
D39*
X1201260Y875030D02*
D03*
X1160940Y811530D02*
D03*
X1180940D02*
D03*
X1024730Y574040D02*
D03*
X957900D02*
D03*
X612300Y807720D02*
D03*
X612460Y777240D02*
D03*
X826610Y593090D02*
D03*
X758350D02*
D03*
X806610D02*
D03*
X1181260Y875030D02*
D03*
X1004730Y574040D02*
D03*
X977900D02*
D03*
X778350Y593090D02*
D03*
X632300Y807720D02*
D03*
X632460Y777240D02*
D03*
X1003460Y709930D02*
D03*
X1023460D02*
D03*
D40*
X1205230Y1028700D02*
D03*
Y952500D02*
D03*
Y965200D02*
D03*
Y977900D02*
D03*
Y990600D02*
D03*
Y1003300D02*
D03*
Y1016000D02*
D03*
Y1041400D02*
D03*
D41*
X1019810Y1025170D02*
D03*
X887730Y527330D02*
D03*
Y562330D02*
D03*
X1019810Y1060170D02*
D03*
D42*
X817580Y540930D02*
D03*
X1016970D02*
D03*
X1004470D02*
D03*
X991970D02*
D03*
X979470D02*
D03*
X805080D02*
D03*
X792580D02*
D03*
X780080D02*
D03*
D43*
X761010Y941070D02*
D03*
X796010D02*
D03*
D44*
X1035470Y508930D02*
D03*
X960970D02*
D03*
X836080D02*
D03*
X761580D02*
D03*
D45*
X1137480Y632390D02*
D03*
X1082480D02*
D03*
Y655390D02*
D03*
X1137480D02*
D03*
D46*
X1188720Y768190D02*
D03*
X883920Y637380D02*
D03*
Y617380D02*
D03*
X910590Y637380D02*
D03*
Y617380D02*
D03*
X1019810Y777080D02*
D03*
Y757080D02*
D03*
X1188720Y748190D02*
D03*
D47*
X694800Y1000760D02*
D03*
X676800D02*
D03*
D48*
X1155040Y875030D02*
D03*
X1136040D02*
D03*
D49*
X500070Y977650D02*
D03*
Y842650D02*
D03*
D50*
X560070Y946150D02*
D03*
D51*
Y874150D02*
D03*
D52*
X501650Y650240D02*
D03*
Y726440D02*
D03*
X530000Y1030000D02*
D03*
X850000D02*
D03*
X530000Y790000D02*
D03*
Y540000D02*
D03*
X501650Y624840D02*
D03*
Y675640D02*
D03*
Y701040D02*
D03*
D53*
X1260000Y540000D02*
D03*
D54*
X604530Y514350D02*
D03*
X624530D02*
D03*
X644530D02*
D03*
X664530D02*
D03*
D55*
X684530D02*
D03*
D56*
X1024890Y590550D02*
D03*
X852170Y544830D02*
D03*
X786130Y712470D02*
D03*
X646430Y885190D02*
D03*
X687070Y967740D02*
D03*
X979170Y755650D02*
D03*
X1272540Y767080D02*
D03*
X958850Y812800D02*
D03*
X1087120Y1036320D02*
D03*
X1201420Y897890D02*
D03*
X731520Y508000D02*
D03*
X810260Y880110D02*
D03*
X1144270Y812800D02*
D03*
X1059180Y541020D02*
D03*
X996950Y622300D02*
D03*
X1129030Y731520D02*
D03*
X622300Y748030D02*
D03*
X640080Y712470D02*
D03*
X657860D02*
D03*
X678180Y711200D02*
D03*
X695960D02*
D03*
X864870Y593090D02*
D03*
X1181100Y786130D02*
D03*
X1203960Y748030D02*
D03*
X680720Y777240D02*
D03*
X812800Y803910D02*
D03*
X919480Y665480D02*
D03*
X783590Y817880D02*
D03*
X1102360Y951230D02*
D03*
X1116330Y990600D02*
D03*
X1013460Y935990D02*
D03*
X897890D02*
D03*
X946150Y678180D02*
D03*
X774700Y692150D02*
D03*
X734060Y607060D02*
D03*
X1104900Y1016000D02*
D03*
X958850Y980440D02*
D03*
X807720Y661670D02*
D03*
X868680Y845820D02*
D03*
X664210Y652780D02*
D03*
X644530D02*
D03*
X624840D02*
D03*
X684530D02*
D03*
X622300Y718820D02*
D03*
X604520Y652780D02*
D03*
X745490Y842010D02*
D03*
M02*
