G04*
G04 #@! TF.GenerationSoftware,Altium Limited,Altium Designer,25.8.1 (18)*
G04*
G04 Layer_Color=8421504*
%FSLAX44Y44*%
%MOMM*%
G71*
G04*
G04 #@! TF.SameCoordinates,96B50244-D1D5-4C2D-93FB-96D2E815F5E8*
G04*
G04*
G04 #@! TF.FilePolarity,Positive*
G04*
G01*
G75*
%ADD17R,1.2500X1.0000*%
%ADD18R,1.4750X0.3000*%
%ADD19R,0.3000X1.4750*%
%ADD20R,1.5250X0.6500*%
%ADD21R,1.0000X1.2500*%
%ADD22R,0.9000X1.0000*%
%ADD23R,1.3000X1.1000*%
%ADD24R,1.7000X0.5500*%
%ADD25R,1.2000X1.4500*%
%ADD26O,2.5400X0.9000*%
%ADD27R,1.6000X2.5000*%
%ADD28R,0.6000X1.7000*%
%ADD29R,2.5000X1.6000*%
%ADD30R,1.0000X2.7000*%
%ADD31R,0.7000X1.6000*%
%ADD32R,1.4500X1.2000*%
%ADD33R,1.1500X1.4500*%
%ADD34R,0.9500X1.4000*%
D17*
X731520Y522130D02*
D03*
X806450Y712310D02*
D03*
X930910Y520860D02*
D03*
X939800Y642780D02*
D03*
X631190Y855820D02*
D03*
X652780Y979330D02*
D03*
X718820D02*
D03*
X829310Y879950D02*
D03*
X861060D02*
D03*
X1016000Y636430D02*
D03*
X972820Y642620D02*
D03*
X1054100Y726600D02*
D03*
X1221740Y737710D02*
D03*
X990600Y765970D02*
D03*
X958850Y829470D02*
D03*
X1054100Y774860D02*
D03*
X1162050Y1026320D02*
D03*
Y1046320D02*
D03*
X958850Y849470D02*
D03*
X990600Y785970D02*
D03*
X972820Y662620D02*
D03*
X939800Y662780D02*
D03*
X930910Y540860D02*
D03*
X718820Y999330D02*
D03*
X829310Y859950D02*
D03*
X631190Y835820D02*
D03*
X806450Y692310D02*
D03*
X731520Y542130D02*
D03*
X652780Y999330D02*
D03*
X1054100Y794860D02*
D03*
X1016000Y656430D02*
D03*
X1221740Y717710D02*
D03*
X1054100Y746600D02*
D03*
X861060Y859950D02*
D03*
D18*
X836700Y720610D02*
D03*
X951460Y770610D02*
D03*
Y775610D02*
D03*
Y715610D02*
D03*
X836700D02*
D03*
X951460Y720610D02*
D03*
Y725610D02*
D03*
Y730610D02*
D03*
Y735610D02*
D03*
Y740610D02*
D03*
Y745610D02*
D03*
Y750610D02*
D03*
Y755610D02*
D03*
Y760610D02*
D03*
Y765610D02*
D03*
Y780610D02*
D03*
Y785610D02*
D03*
Y790610D02*
D03*
X836700D02*
D03*
Y785610D02*
D03*
Y780610D02*
D03*
Y775610D02*
D03*
Y770610D02*
D03*
Y765610D02*
D03*
Y760610D02*
D03*
Y755610D02*
D03*
Y750610D02*
D03*
Y745610D02*
D03*
Y740610D02*
D03*
Y735610D02*
D03*
Y730610D02*
D03*
Y725610D02*
D03*
D19*
X926580Y810490D02*
D03*
Y695730D02*
D03*
X861580Y810490D02*
D03*
X876580D02*
D03*
X901580D02*
D03*
X911580D02*
D03*
X906580D02*
D03*
X881580D02*
D03*
X856580D02*
D03*
X921580D02*
D03*
X931580Y695730D02*
D03*
X886580Y810490D02*
D03*
X916580D02*
D03*
X931580D02*
D03*
X896580D02*
D03*
X891580D02*
D03*
X871580D02*
D03*
X866580D02*
D03*
X856580Y695730D02*
D03*
X861580D02*
D03*
X866580D02*
D03*
X871580D02*
D03*
X876580D02*
D03*
X881580D02*
D03*
X886580D02*
D03*
X891580D02*
D03*
X896580D02*
D03*
X901580D02*
D03*
X906580D02*
D03*
X911580D02*
D03*
X916580D02*
D03*
X921580D02*
D03*
D20*
X667570Y873760D02*
D03*
Y861060D02*
D03*
Y835660D02*
D03*
Y848360D02*
D03*
X721810Y873760D02*
D03*
Y861060D02*
D03*
Y848360D02*
D03*
Y835660D02*
D03*
D21*
X1100930Y695960D02*
D03*
X1080930D02*
D03*
D22*
X1249500Y733170D02*
D03*
X1290500D02*
D03*
Y806830D02*
D03*
X1249500Y790830D02*
D03*
X1290500D02*
D03*
X1249500Y806830D02*
D03*
X1290500Y717170D02*
D03*
X1249500D02*
D03*
D23*
X1117670Y756810D02*
D03*
X1094670Y774810D02*
D03*
X1117670D02*
D03*
X1094670Y756810D02*
D03*
D24*
X1270000Y739420D02*
D03*
Y813080D02*
D03*
D25*
X1201260Y875030D02*
D03*
X1160940Y811530D02*
D03*
X1180940D02*
D03*
X1024730Y574040D02*
D03*
X957900D02*
D03*
X612300Y807720D02*
D03*
X612460Y777240D02*
D03*
X826610Y593090D02*
D03*
X758350D02*
D03*
X806610D02*
D03*
X1181260Y875030D02*
D03*
X1004730Y574040D02*
D03*
X977900D02*
D03*
X778350Y593090D02*
D03*
X632300Y807720D02*
D03*
X632460Y777240D02*
D03*
X1003460Y709930D02*
D03*
X1023460D02*
D03*
D26*
X1205230Y1028700D02*
D03*
Y952500D02*
D03*
Y965200D02*
D03*
Y977900D02*
D03*
Y990600D02*
D03*
Y1003300D02*
D03*
Y1016000D02*
D03*
Y1041400D02*
D03*
D27*
X1019810Y1025170D02*
D03*
X887730Y527330D02*
D03*
Y562330D02*
D03*
X1019810Y1060170D02*
D03*
D28*
X817580Y540930D02*
D03*
X1016970D02*
D03*
X1004470D02*
D03*
X991970D02*
D03*
X979470D02*
D03*
X805080D02*
D03*
X792580D02*
D03*
X780080D02*
D03*
D29*
X761010Y941070D02*
D03*
X796010D02*
D03*
D30*
X1035470Y508930D02*
D03*
X960970D02*
D03*
X836080D02*
D03*
X761580D02*
D03*
D31*
X1137480Y632390D02*
D03*
X1082480D02*
D03*
Y655390D02*
D03*
X1137480D02*
D03*
D32*
X1188720Y768190D02*
D03*
X883920Y637380D02*
D03*
Y617380D02*
D03*
X910590Y637380D02*
D03*
Y617380D02*
D03*
X1019810Y777080D02*
D03*
Y757080D02*
D03*
X1188720Y748190D02*
D03*
D33*
X694800Y1000760D02*
D03*
X676800D02*
D03*
D34*
X1155040Y875030D02*
D03*
X1136040D02*
D03*
M02*
