M48
;Layer_Color=9474304
;FILE_FORMAT=4:4
METRIC,LZ
;TYPE=PLATED
T01F00S00C0.3000
T02F00S00C0.7000
T03F00S00C0.7620
T04F00S00C1.8000
T05F00S00C2.7000
T06F00S00C3.6000
%
T01
X0120396Y0074803
X0127254Y0076708
X011811Y0078613
X0112903Y0073152
X0097917Y0075565
X0094615Y0067818
X0091948Y0066548
X0080772Y0066167
X0086487Y0059309
X0085217Y0054483
X0105918Y0054102
X0102489Y0059055
X0099695Y006223
X0073406Y0060706
X0068453Y0065278
X0066421
X0064453
X0062484
X0060452
X006223Y0071882
X0064008Y0071247
X0065786
X0067818Y007112
X0069596
X0068072Y0077724
X006223Y0074803
X0078613Y0071247
X007747Y0069215
X0073152Y00508
X0074549Y0084201
X0078359Y0081788
X0064643Y0088519
X0068707Y0096774
X0081026Y0088011
X008128Y0080391
X0086868Y0084582
X0089789Y0093599
X0095885Y0098044
X0101346Y0093599
X0110236Y0095123
X0111633Y009906
X011049Y01016
X0108712Y0103632
X0114427Y008128
X0095885
X0120142Y0089789
T02
X0060453Y0051435
X0062453
X0064453
X0066453
X0068453
T03
X0050165Y0062484
Y0065024
Y0067564
Y0070104
Y0072644
T04
X0050007Y0084265
Y0097765
T05
X0056007Y0087415
Y0094615
T06
X0126Y0054
X0053
Y0079
Y0103
X0085
M30
